Interstate-Thin_Italic.ufo
<glyph name="exclam" format="1">
  <advance width="229"/>
  <unicode hex="0021"/>
  <outline>
    <contour>
      <point x="97" y="144" type="line"/>
      <point x="84" y="144" type="line"/>
      <point x="120" y="371" type="line"/>
      <point x="178" y="700" type="line"/>
      <point x="199" y="700" type="line"/>
      <point x="141" y="371" type="line"/>
    </contour>
    <contour>
      <point x="92" y="20" type="curve" smooth="yes"/>
      <point x="92" y="7"/>
      <point x="81" y="-3"/>
      <point x="69" y="-3" type="curve" smooth="yes"/>
      <point x="56" y="-3"/>
      <point x="46" y="7"/>
      <point x="46" y="20" type="curve" smooth="yes"/>
      <point x="46" y="33"/>
      <point x="56" y="44"/>
      <point x="69" y="44" type="curve" smooth="yes"/>
      <point x="81" y="44"/>
      <point x="92" y="33"/>
    </contour>
  </outline>
</glyph>
<glyph name="quotedbl" format="1">
  <advance width="426"/>
  <unicode hex="0022"/>
  <outline>
    <contour>
      <point x="396" y="700" type="line"/>
      <point x="351" y="469" type="line"/>
      <point x="334" y="469" type="line"/>
      <point x="370" y="700" type="line"/>
    </contour>
    <contour>
      <point x="200" y="700" type="line"/>
      <point x="155" y="469" type="line"/>
      <point x="138" y="469" type="line"/>
      <point x="174" y="700" type="line"/>
    </contour>
  </outline>
</glyph>
<glyph name="numbersign" format="1">
  <advance width="648"/>
  <unicode hex="0023"/>
  <outline>
    <contour>
      <point x="628" y="491" type="line"/>
      <point x="624" y="471" type="line"/>
      <point x="492" y="471" type="line"/>
      <point x="449" y="228" type="line"/>
      <point x="581" y="228" type="line"/>
      <point x="577" y="208" type="line"/>
      <point x="446" y="208" type="line"/>
      <point x="409" y="0" type="line"/>
      <point x="388" y="0" type="line"/>
      <point x="424" y="208" type="line"/>
      <point x="196" y="208" type="line"/>
      <point x="160" y="0" type="line"/>
      <point x="139" y="0" type="line"/>
      <point x="175" y="208" type="line"/>
      <point x="44" y="208" type="line"/>
      <point x="48" y="228" type="line"/>
      <point x="179" y="228" type="line"/>
      <point x="222" y="471" type="line"/>
      <point x="90" y="471" type="line"/>
      <point x="94" y="491" type="line"/>
      <point x="226" y="491" type="line"/>
      <point x="262" y="700" type="line"/>
      <point x="283" y="700" type="line"/>
      <point x="247" y="491" type="line"/>
      <point x="475" y="491" type="line"/>
      <point x="511" y="700" type="line"/>
      <point x="532" y="700" type="line"/>
      <point x="496" y="491" type="line"/>
    </contour>
    <contour>
      <point x="471" y="471" type="line"/>
      <point x="243" y="471" type="line"/>
      <point x="200" y="228" type="line"/>
      <point x="428" y="228" type="line"/>
    </contour>
  </outline>
</glyph>
<glyph name="dollar" format="1">
  <advance width="554"/>
  <unicode hex="0024"/>
  <outline>
    <contour>
      <point x="335" y="708" type="curve"/>
      <point x="351" y="800" type="line"/>
      <point x="372" y="800" type="line"/>
      <point x="356" y="706" type="line"/>
      <point x="445" y="698"/>
      <point x="498" y="661"/>
      <point x="530" y="632" type="curve"/>
      <point x="514" y="616" type="line"/>
      <point x="482" y="647"/>
      <point x="422" y="688"/>
      <point x="317" y="688" type="curve" smooth="yes"/>
      <point x="209" y="688"/>
      <point x="141" y="621"/>
      <point x="141" y="535" type="curve" smooth="yes"/>
      <point x="141" y="466"/>
      <point x="176" y="428"/>
      <point x="289" y="375" type="curve" smooth="yes"/>
      <point x="426" y="310"/>
      <point x="466" y="263"/>
      <point x="466" y="181" type="curve" smooth="yes"/>
      <point x="466" y="55"/>
      <point x="368" y="-9"/>
      <point x="246" y="-9" type="curve" smooth="yes"/>
      <point x="241" y="-9"/>
      <point x="236" y="-9"/>
      <point x="231" y="-9" type="curve"/>
      <point x="215" y="-100" type="line"/>
      <point x="194" y="-100" type="line"/>
      <point x="210" y="-7" type="line"/>
      <point x="115" y="3"/>
      <point x="49" y="53"/>
      <point x="24" y="81" type="curve"/>
      <point x="40" y="95" type="line"/>
      <point x="66" y="68"/>
      <point x="139" y="11"/>
      <point x="246" y="11" type="curve" smooth="yes"/>
      <point x="358" y="11"/>
      <point x="444" y="69"/>
      <point x="444" y="181" type="curve" smooth="yes"/>
      <point x="444" y="255"/>
      <point x="404" y="296"/>
      <point x="279" y="355" type="curve" smooth="yes"/>
      <point x="154" y="414"/>
      <point x="119" y="456"/>
      <point x="119" y="535" type="curve" smooth="yes"/>
      <point x="119" y="633"/>
      <point x="195" y="708"/>
      <point x="317" y="708" type="curve" smooth="yes"/>
      <point x="323" y="708"/>
      <point x="329" y="708"/>
    </contour>
  </outline>
</glyph>
<glyph name="ampersand" format="1">
  <advance width="613"/>
  <unicode hex="0026"/>
  <outline>
    <contour>
      <point x="442" y="112" type="curve"/>
      <point x="510" y="0" type="line"/>
      <point x="486" y="0" type="line"/>
      <point x="428" y="96" type="line"/>
      <point x="373" y="36"/>
      <point x="301" y="-11"/>
      <point x="209" y="-11" type="curve" smooth="yes"/>
      <point x="102" y="-11"/>
      <point x="34" y="53"/>
      <point x="34" y="152" type="curve" smooth="yes"/>
      <point x="34" y="263"/>
      <point x="130" y="350"/>
      <point x="248" y="396" type="curve"/>
      <point x="226" y="432" type="line" smooth="yes"/>
      <point x="199" y="477"/>
      <point x="183" y="517"/>
      <point x="183" y="560" type="curve" smooth="yes"/>
      <point x="183" y="650"/>
      <point x="244" y="711"/>
      <point x="347" y="711" type="curve" smooth="yes"/>
      <point x="421" y="711"/>
      <point x="481" y="682"/>
      <point x="524" y="641" type="curve"/>
      <point x="510" y="624" type="line"/>
      <point x="466" y="665"/>
      <point x="414" y="691"/>
      <point x="347" y="691" type="curve" smooth="yes"/>
      <point x="256" y="691"/>
      <point x="205" y="639"/>
      <point x="205" y="561" type="curve" smooth="yes"/>
      <point x="205" y="520"/>
      <point x="221" y="481"/>
      <point x="244" y="443" type="curve" smooth="yes"/>
      <point x="431" y="131" type="line"/>
      <point x="475" y="184"/>
      <point x="506" y="244"/>
      <point x="525" y="287" type="curve"/>
      <point x="545" y="280" type="line"/>
      <point x="525" y="236"/>
      <point x="491" y="170"/>
    </contour>
    <contour>
      <point x="417" y="114" type="curve"/>
      <point x="258" y="379" type="line"/>
      <point x="148" y="336"/>
      <point x="56" y="254"/>
      <point x="56" y="152" type="curve" smooth="yes"/>
      <point x="56" y="68"/>
      <point x="114" y="9"/>
      <point x="211" y="9" type="curve" smooth="yes"/>
      <point x="296" y="9"/>
      <point x="365" y="56"/>
    </contour>
  </outline>
</glyph>
<glyph name="quotesingle" format="1">
  <advance width="229"/>
  <unicode hex="0027"/>
  <outline>
    <contour>
      <point x="201" y="700" type="line"/>
      <point x="155" y="469" type="line"/>
      <point x="137" y="469" type="line"/>
      <point x="175" y="700" type="line"/>
    </contour>
  </outline>
</glyph>
<glyph name="parenleft" format="1">
  <advance width="350"/>
  <unicode hex="0028"/>
  <outline>
    <contour>
      <point x="340" y="706" type="line"/>
      <point x="207" y="602"/>
      <point x="97" y="420"/>
      <point x="97" y="212" type="curve" smooth="yes"/>
      <point x="97" y="90"/>
      <point x="141" y="-33"/>
      <point x="196" y="-103" type="curve"/>
      <point x="184" y="-111" type="line"/>
      <point x="127" y="-40"/>
      <point x="76" y="84"/>
      <point x="76" y="217" type="curve" smooth="yes"/>
      <point x="76" y="423"/>
      <point x="189" y="607"/>
      <point x="332" y="718" type="curve"/>
    </contour>
  </outline>
</glyph>
<glyph name="parenright" format="1">
  <advance width="350"/>
  <unicode hex="0029"/>
  <outline>
    <contour>
      <point x="280" y="389" type="curve" smooth="yes"/>
      <point x="280" y="183"/>
      <point x="167" y="-1"/>
      <point x="25" y="-112" type="curve"/>
      <point x="16" y="-100" type="line"/>
      <point x="149" y="4"/>
      <point x="259" y="186"/>
      <point x="259" y="394" type="curve" smooth="yes"/>
      <point x="259" y="516"/>
      <point x="215" y="639"/>
      <point x="160" y="709" type="curve"/>
      <point x="172" y="717" type="line"/>
      <point x="229" y="646"/>
      <point x="280" y="522"/>
    </contour>
  </outline>
</glyph>
<glyph name="asterisk" format="1">
  <advance width="477"/>
  <unicode hex="002A"/>
  <outline>
    <contour>
      <point x="433" y="426" type="line"/>
      <point x="424" y="410" type="line"/>
      <point x="271" y="504" type="line"/>
      <point x="275" y="324" type="line"/>
      <point x="257" y="324" type="line"/>
      <point x="262" y="504" type="line"/>
      <point x="109" y="410" type="line"/>
      <point x="100" y="426" type="line"/>
      <point x="256" y="512" type="line"/>
      <point x="100" y="598" type="line"/>
      <point x="109" y="614" type="line"/>
      <point x="262" y="520" type="line"/>
      <point x="257" y="700" type="line"/>
      <point x="275" y="700" type="line"/>
      <point x="271" y="520" type="line"/>
      <point x="424" y="614" type="line"/>
      <point x="433" y="598" type="line"/>
      <point x="277" y="512" type="line"/>
    </contour>
  </outline>
</glyph>
<glyph name="plus" format="1">
  <advance width="569"/>
  <unicode hex="002B"/>
  <outline>
    <contour>
      <point x="525" y="334" type="line"/>
      <point x="306" y="334" type="line"/>
      <point x="306" y="90" type="line"/>
      <point x="285" y="90" type="line"/>
      <point x="285" y="334" type="line"/>
      <point x="64" y="334" type="line"/>
      <point x="64" y="354" type="line"/>
      <point x="285" y="354" type="line"/>
      <point x="285" y="598" type="line"/>
      <point x="306" y="598" type="line"/>
      <point x="306" y="354" type="line"/>
      <point x="525" y="354" type="line"/>
    </contour>
  </outline>
</glyph>
<glyph name="comma" format="1">
  <advance width="190"/>
  <unicode hex="002C"/>
  <outline>
    <contour>
      <point x="77" y="73" type="line"/>
      <point x="20" y="-80" type="line"/>
      <point x="5" y="-80" type="line"/>
      <point x="49" y="73" type="line"/>
    </contour>
  </outline>
</glyph>
<glyph name="hyphen" format="1">
  <advance width="313"/>
  <unicode hex="002D"/>
  <unicode hex="2010"/>
  <unicode hex="2011"/>
  <outline>
    <contour>
      <point x="278" y="374" type="line"/>
      <point x="274" y="353" type="line"/>
      <point x="64" y="353" type="line"/>
      <point x="68" y="374" type="line"/>
    </contour>
  </outline>
</glyph>
<glyph name="period" format="1">
  <advance width="190"/>
  <unicode hex="002E"/>
  <outline>
    <contour>
      <point x="75" y="20" type="curve" smooth="yes"/>
      <point x="75" y="7"/>
      <point x="64" y="-3"/>
      <point x="52" y="-3" type="curve" smooth="yes"/>
      <point x="39" y="-3"/>
      <point x="29" y="7"/>
      <point x="29" y="20" type="curve" smooth="yes"/>
      <point x="29" y="33"/>
      <point x="39" y="44"/>
      <point x="52" y="44" type="curve" smooth="yes"/>
      <point x="64" y="44"/>
      <point x="75" y="33"/>
    </contour>
  </outline>
</glyph>
<glyph name="slash" format="1">
  <advance width="406"/>
  <unicode hex="002F"/>
  <outline>
    <contour>
      <point x="448" y="790" type="line"/>
      <point x="4" y="-91" type="line"/>
      <point x="-18" y="-90" type="line"/>
      <point x="426" y="791" type="line"/>
    </contour>
  </outline>
</glyph>
<glyph name="zero" format="1">
  <advance width="646"/>
  <unicode hex="0030"/>
  <outline>
    <contour>
      <point x="70" y="254" type="curve" smooth="yes"/>
      <point x="70" y="484"/>
      <point x="184" y="711"/>
      <point x="378" y="711" type="curve" smooth="yes"/>
      <point x="514" y="711"/>
      <point x="600" y="615"/>
      <point x="600" y="447" type="curve" smooth="yes"/>
      <point x="600" y="217"/>
      <point x="486" y="-11"/>
      <point x="292" y="-11" type="curve" smooth="yes"/>
      <point x="157" y="-11"/>
      <point x="70" y="88"/>
    </contour>
    <contour>
      <point x="578" y="447" type="curve" smooth="yes"/>
      <point x="578" y="599"/>
      <point x="503" y="691"/>
      <point x="379" y="691" type="curve" smooth="yes"/>
      <point x="195" y="691"/>
      <point x="92" y="472"/>
      <point x="92" y="254" type="curve" smooth="yes"/>
      <point x="92" y="102"/>
      <point x="168" y="9"/>
      <point x="291" y="9" type="curve" smooth="yes"/>
      <point x="475" y="9"/>
      <point x="578" y="229"/>
    </contour>
  </outline>
</glyph>
<glyph name="one" format="1">
  <advance width="274"/>
  <unicode hex="0031"/>
  <outline>
    <contour>
      <point x="121" y="0" type="line"/>
      <point x="99" y="0" type="line"/>
      <point x="215" y="661" type="line"/>
      <point x="201" y="634"/>
      <point x="129" y="607"/>
      <point x="85" y="607" type="curve"/>
      <point x="89" y="628" type="line"/>
      <point x="143" y="629"/>
      <point x="206" y="660"/>
      <point x="227" y="704" type="curve"/>
      <point x="245" y="704" type="line"/>
    </contour>
  </outline>
</glyph>
<glyph name="two" format="1">
  <advance width="547"/>
  <unicode hex="0032"/>
  <outline>
    <contour>
      <point x="511" y="557" type="curve" smooth="yes"/>
      <point x="511" y="447"/>
      <point x="449" y="386"/>
      <point x="278" y="296" type="curve" smooth="yes"/>
      <point x="104" y="205"/>
      <point x="57" y="112"/>
      <point x="34" y="21" type="curve"/>
      <point x="428" y="21" type="line"/>
      <point x="424" y="0" type="line"/>
      <point x="8" y="0" type="line"/>
      <point x="31" y="123"/>
      <point x="95" y="222"/>
      <point x="268" y="312" type="curve" smooth="yes"/>
      <point x="435" y="399"/>
      <point x="489" y="458"/>
      <point x="489" y="556" type="curve" smooth="yes"/>
      <point x="489" y="641"/>
      <point x="428" y="691"/>
      <point x="320" y="691" type="curve" smooth="yes"/>
      <point x="252" y="691"/>
      <point x="199" y="673"/>
      <point x="153" y="646" type="curve"/>
      <point x="144" y="663" type="line"/>
      <point x="188" y="690"/>
      <point x="249" y="711"/>
      <point x="321" y="711" type="curve" smooth="yes"/>
      <point x="437" y="711"/>
      <point x="511" y="657"/>
    </contour>
  </outline>
</glyph>
<glyph name="three" format="1">
  <advance width="536"/>
  <unicode hex="0033"/>
  <outline>
    <contour>
      <point x="483" y="567" type="curve" smooth="yes"/>
      <point x="483" y="456"/>
      <point x="394" y="384"/>
      <point x="320" y="373" type="curve"/>
      <point x="364" y="369"/>
      <point x="450" y="334"/>
      <point x="450" y="212" type="curve" smooth="yes"/>
      <point x="450" y="84"/>
      <point x="355" y="-9"/>
      <point x="210" y="-9" type="curve" smooth="yes"/>
      <point x="120" y="-9"/>
      <point x="46" y="26"/>
      <point x="9" y="60" type="curve"/>
      <point x="23" y="77" type="line"/>
      <point x="57" y="46"/>
      <point x="128" y="11"/>
      <point x="212" y="11" type="curve" smooth="yes"/>
      <point x="349" y="11"/>
      <point x="428" y="102"/>
      <point x="428" y="211" type="curve" smooth="yes"/>
      <point x="428" y="308"/>
      <point x="371" y="364"/>
      <point x="269" y="364" type="curve" smooth="yes"/>
      <point x="255" y="364"/>
      <point x="235" y="364"/>
      <point x="217" y="364" type="curve"/>
      <point x="219" y="383" type="line"/>
      <point x="230" y="383"/>
      <point x="249" y="383"/>
      <point x="272" y="383" type="curve" smooth="yes"/>
      <point x="371" y="383"/>
      <point x="461" y="460"/>
      <point x="461" y="565" type="curve" smooth="yes"/>
      <point x="461" y="653"/>
      <point x="404" y="700"/>
      <point x="296" y="700" type="curve" smooth="yes"/>
      <point x="228" y="700"/>
      <point x="170" y="674"/>
      <point x="143" y="657" type="curve"/>
      <point x="134" y="675" type="line"/>
      <point x="165" y="696"/>
      <point x="228" y="720"/>
      <point x="297" y="720" type="curve" smooth="yes"/>
      <point x="418" y="720"/>
      <point x="483" y="665"/>
    </contour>
  </outline>
</glyph>
<glyph name="four" format="1">
  <advance width="569"/>
  <unicode hex="0034"/>
  <outline>
    <contour>
      <point x="517" y="188" type="line"/>
      <point x="406" y="188" type="line"/>
      <point x="373" y="0" type="line"/>
      <point x="352" y="0" type="line"/>
      <point x="385" y="188" type="line"/>
      <point x="22" y="188" type="line"/>
      <point x="26" y="206" type="line"/>
      <point x="471" y="705" type="line"/>
      <point x="498" y="705" type="line"/>
      <point x="410" y="207" type="line"/>
      <point x="521" y="207" type="line"/>
    </contour>
    <contour>
      <point x="389" y="207" type="line"/>
      <point x="472" y="677" type="line"/>
      <point x="54" y="207" type="line"/>
    </contour>
  </outline>
</glyph>
<glyph name="five" format="1">
  <advance width="574"/>
  <unicode hex="0035"/>
  <outline>
    <contour>
      <point x="554" y="700" type="line"/>
      <point x="551" y="679" type="line"/>
      <point x="202" y="679" type="line"/>
      <point x="129" y="380" type="line"/>
      <point x="164" y="405"/>
      <point x="221" y="422"/>
      <point x="288" y="422" type="curve" smooth="yes"/>
      <point x="429" y="422"/>
      <point x="508" y="357"/>
      <point x="508" y="231" type="curve" smooth="yes"/>
      <point x="508" y="74"/>
      <point x="392" y="-13"/>
      <point x="240" y="-13" type="curve" smooth="yes"/>
      <point x="134" y="-13"/>
      <point x="57" y="27"/>
      <point x="29" y="49" type="curve"/>
      <point x="41" y="67" type="line"/>
      <point x="73" y="42"/>
      <point x="154" y="8"/>
      <point x="242" y="8" type="curve" smooth="yes"/>
      <point x="382" y="8"/>
      <point x="486" y="91"/>
      <point x="486" y="230" type="curve" smooth="yes"/>
      <point x="486" y="341"/>
      <point x="419" y="401"/>
      <point x="286" y="401" type="curve" smooth="yes"/>
      <point x="217" y="401"/>
      <point x="163" y="383"/>
      <point x="123" y="353" type="curve"/>
      <point x="103" y="362" type="line"/>
      <point x="186" y="700" type="line"/>
    </contour>
  </outline>
</glyph>
<glyph name="six" format="1">
  <advance width="606"/>
  <unicode hex="0036"/>
  <outline>
    <contour>
      <point x="541" y="232" type="curve" smooth="yes"/>
      <point x="541" y="94"/>
      <point x="435" y="-11"/>
      <point x="292" y="-11" type="curve" smooth="yes"/>
      <point x="145" y="-11"/>
      <point x="62" y="72"/>
      <point x="62" y="215" type="curve" smooth="yes"/>
      <point x="62" y="408"/>
      <point x="198" y="675"/>
      <point x="511" y="708" type="curve"/>
      <point x="508" y="688" type="line"/>
      <point x="249" y="660"/>
      <point x="118" y="458"/>
      <point x="89" y="289" type="curve"/>
      <point x="114" y="348"/>
      <point x="195" y="423"/>
      <point x="324" y="423" type="curve" smooth="yes"/>
      <point x="450" y="423"/>
      <point x="541" y="356"/>
    </contour>
    <contour>
      <point x="519" y="231" type="curve" smooth="yes"/>
      <point x="519" y="342"/>
      <point x="441" y="403"/>
      <point x="321" y="403" type="curve" smooth="yes"/>
      <point x="169" y="403"/>
      <point x="84" y="288"/>
      <point x="84" y="212" type="curve" smooth="yes"/>
      <point x="84" y="84"/>
      <point x="156" y="9"/>
      <point x="293" y="9" type="curve" smooth="yes"/>
      <point x="428" y="9"/>
      <point x="519" y="109"/>
    </contour>
  </outline>
</glyph>
<glyph name="seven" format="1">
  <advance width="520"/>
  <unicode hex="0037"/>
  <outline>
    <contour>
      <point x="544" y="700" type="line"/>
      <point x="540" y="680" type="line"/>
      <point x="378" y="515"/>
      <point x="215" y="286"/>
      <point x="152" y="0" type="curve"/>
      <point x="129" y="0" type="line"/>
      <point x="193" y="285"/>
      <point x="352" y="515"/>
      <point x="512" y="679" type="curve"/>
      <point x="105" y="679" type="line"/>
      <point x="110" y="700" type="line"/>
    </contour>
  </outline>
</glyph>
<glyph name="eight" format="1">
  <advance width="606"/>
  <unicode hex="0038"/>
  <outline>
    <contour>
      <point x="563" y="549" type="curve" smooth="yes"/>
      <point x="563" y="444"/>
      <point x="480" y="378"/>
      <point x="372" y="367" type="curve"/>
      <point x="463" y="351"/>
      <point x="536" y="301"/>
      <point x="536" y="201" type="curve" smooth="yes"/>
      <point x="536" y="80"/>
      <point x="434" y="-11"/>
      <point x="284" y="-11" type="curve" smooth="yes"/>
      <point x="151" y="-11"/>
      <point x="40" y="42"/>
      <point x="40" y="170" type="curve" smooth="yes"/>
      <point x="40" y="279"/>
      <point x="129" y="366"/>
      <point x="268" y="373" type="curve"/>
      <point x="186" y="389"/>
      <point x="129" y="441"/>
      <point x="129" y="520" type="curve" smooth="yes"/>
      <point x="129" y="632"/>
      <point x="227" y="711"/>
      <point x="354" y="711" type="curve" smooth="yes"/>
      <point x="483" y="711"/>
      <point x="563" y="648"/>
    </contour>
    <contour>
      <point x="541" y="548" type="curve" smooth="yes"/>
      <point x="541" y="637"/>
      <point x="469" y="691"/>
      <point x="353" y="691" type="curve" smooth="yes"/>
      <point x="237" y="691"/>
      <point x="151" y="619"/>
      <point x="151" y="521" type="curve" smooth="yes"/>
      <point x="151" y="432"/>
      <point x="229" y="380"/>
      <point x="340" y="380" type="curve" smooth="yes"/>
      <point x="453" y="380"/>
      <point x="541" y="445"/>
    </contour>
    <contour>
      <point x="514" y="200" type="curve" smooth="yes"/>
      <point x="514" y="313"/>
      <point x="415" y="359"/>
      <point x="292" y="359" type="curve" smooth="yes"/>
      <point x="150" y="359"/>
      <point x="62" y="277"/>
      <point x="62" y="171" type="curve" smooth="yes"/>
      <point x="62" y="56"/>
      <point x="164" y="9"/>
      <point x="285" y="9" type="curve" smooth="yes"/>
      <point x="427" y="9"/>
      <point x="514" y="95"/>
    </contour>
  </outline>
</glyph>
<glyph name="nine" format="1">
  <advance width="606"/>
  <unicode hex="0039"/>
  <outline>
    <contour>
      <point x="85" y="468" type="curve" smooth="yes"/>
      <point x="85" y="606"/>
      <point x="191" y="711"/>
      <point x="334" y="711" type="curve" smooth="yes"/>
      <point x="481" y="711"/>
      <point x="564" y="628"/>
      <point x="564" y="485" type="curve" smooth="yes"/>
      <point x="564" y="292"/>
      <point x="428" y="25"/>
      <point x="115" y="-8" type="curve"/>
      <point x="118" y="12" type="line"/>
      <point x="377" y="40"/>
      <point x="508" y="242"/>
      <point x="537" y="411" type="curve"/>
      <point x="512" y="352"/>
      <point x="431" y="277"/>
      <point x="302" y="277" type="curve" smooth="yes"/>
      <point x="176" y="277"/>
      <point x="85" y="344"/>
    </contour>
    <contour>
      <point x="107" y="469" type="curve" smooth="yes"/>
      <point x="107" y="358"/>
      <point x="185" y="297"/>
      <point x="305" y="297" type="curve" smooth="yes"/>
      <point x="457" y="297"/>
      <point x="542" y="412"/>
      <point x="542" y="488" type="curve" smooth="yes"/>
      <point x="542" y="616"/>
      <point x="470" y="691"/>
      <point x="333" y="691" type="curve" smooth="yes"/>
      <point x="198" y="691"/>
      <point x="107" y="591"/>
    </contour>
  </outline>
</glyph>
<glyph name="colon" format="1">
  <advance width="190"/>
  <unicode hex="003A"/>
  <outline>
    <contour>
      <point x="160" y="504" type="curve" smooth="yes"/>
      <point x="160" y="491"/>
      <point x="149" y="481"/>
      <point x="137" y="481" type="curve" smooth="yes"/>
      <point x="124" y="481"/>
      <point x="114" y="491"/>
      <point x="114" y="504" type="curve" smooth="yes"/>
      <point x="114" y="517"/>
      <point x="124" y="528"/>
      <point x="137" y="528" type="curve" smooth="yes"/>
      <point x="149" y="528"/>
      <point x="160" y="517"/>
    </contour>
    <contour>
      <point x="75" y="20" type="curve" smooth="yes"/>
      <point x="75" y="7"/>
      <point x="64" y="-3"/>
      <point x="52" y="-3" type="curve" smooth="yes"/>
      <point x="39" y="-3"/>
      <point x="29" y="7"/>
      <point x="29" y="20" type="curve" smooth="yes"/>
      <point x="29" y="33"/>
      <point x="39" y="44"/>
      <point x="52" y="44" type="curve" smooth="yes"/>
      <point x="64" y="44"/>
      <point x="75" y="33"/>
    </contour>
  </outline>
</glyph>
<glyph name="semicolon" format="1">
  <advance width="190"/>
  <unicode hex="003B"/>
  <outline>
    <contour>
      <point x="160" y="504" type="curve" smooth="yes"/>
      <point x="160" y="491"/>
      <point x="149" y="481"/>
      <point x="137" y="481" type="curve" smooth="yes"/>
      <point x="124" y="481"/>
      <point x="114" y="491"/>
      <point x="114" y="504" type="curve" smooth="yes"/>
      <point x="114" y="517"/>
      <point x="124" y="528"/>
      <point x="137" y="528" type="curve" smooth="yes"/>
      <point x="149" y="528"/>
      <point x="160" y="517"/>
    </contour>
    <contour>
      <point x="75" y="73" type="line"/>
      <point x="18" y="-80" type="line"/>
      <point x="3" y="-80" type="line"/>
      <point x="47" y="73" type="line"/>
    </contour>
  </outline>
</glyph>
<glyph name="less" format="1">
  <advance width="385"/>
  <unicode hex="003C"/>
  <outline>
    <contour>
      <point x="322" y="64" type="line"/>
      <point x="64" y="335" type="line"/>
      <point x="64" y="353" type="line"/>
      <point x="322" y="624" type="line"/>
      <point x="325" y="600" type="line"/>
      <point x="82" y="344" type="line"/>
      <point x="325" y="89" type="line"/>
    </contour>
  </outline>
</glyph>
<glyph name="equal" format="1">
  <advance width="581"/>
  <unicode hex="003D"/>
  <outline>
    <contour>
      <point x="493" y="435" type="line"/>
      <point x="86" y="435" type="line"/>
      <point x="86" y="455" type="line"/>
      <point x="493" y="455" type="line"/>
    </contour>
    <contour>
      <point x="493" y="233" type="line"/>
      <point x="86" y="233" type="line"/>
      <point x="86" y="253" type="line"/>
      <point x="493" y="253" type="line"/>
    </contour>
  </outline>
</glyph>
<glyph name="greater" format="1">
  <advance width="385"/>
  <unicode hex="003E"/>
  <outline>
    <contour>
      <point x="346" y="335" type="line"/>
      <point x="88" y="64" type="line"/>
      <point x="86" y="88" type="line"/>
      <point x="328" y="344" type="line"/>
      <point x="86" y="599" type="line"/>
      <point x="88" y="624" type="line"/>
      <point x="346" y="353" type="line"/>
    </contour>
  </outline>
</glyph>
<glyph name="question" format="1">
  <advance width="553"/>
  <unicode hex="003F"/>
  <outline>
    <contour>
      <point x="515" y="566" type="curve" smooth="yes"/>
      <point x="515" y="467"/>
      <point x="446" y="416"/>
      <point x="360" y="360" type="curve" smooth="yes"/>
      <point x="274" y="304"/>
      <point x="256" y="285"/>
      <point x="233" y="149" type="curve"/>
      <point x="212" y="149" type="line"/>
      <point x="234" y="280"/>
      <point x="246" y="313"/>
      <point x="352" y="379" type="curve" smooth="yes"/>
      <point x="433" y="429"/>
      <point x="493" y="481"/>
      <point x="493" y="564" type="curve" smooth="yes"/>
      <point x="493" y="645"/>
      <point x="422" y="691"/>
      <point x="328" y="691" type="curve" smooth="yes"/>
      <point x="249" y="691"/>
      <point x="187" y="668"/>
      <point x="134" y="632" type="curve"/>
      <point x="123" y="649" type="line"/>
      <point x="177" y="686"/>
      <point x="246" y="711"/>
      <point x="330" y="711" type="curve" smooth="yes"/>
      <point x="436" y="711"/>
      <point x="515" y="657"/>
    </contour>
    <contour>
      <point x="223" y="20" type="curve" smooth="yes"/>
      <point x="223" y="7"/>
      <point x="212" y="-3"/>
      <point x="200" y="-3" type="curve" smooth="yes"/>
      <point x="187" y="-3"/>
      <point x="177" y="7"/>
      <point x="177" y="20" type="curve" smooth="yes"/>
      <point x="177" y="33"/>
      <point x="187" y="44"/>
      <point x="200" y="44" type="curve" smooth="yes"/>
      <point x="212" y="44"/>
      <point x="223" y="33"/>
    </contour>
  </outline>
</glyph>
<glyph name="at" format="1">
  <advance width="836"/>
  <unicode hex="0040"/>
  <outline>
    <contour>
      <point x="796" y="360" type="curve" smooth="yes"/>
      <point x="796" y="211"/>
      <point x="733" y="152"/>
      <point x="651" y="152" type="curve" smooth="yes"/>
      <point x="599" y="152"/>
      <point x="563" y="181"/>
      <point x="553" y="230" type="curve"/>
      <point x="521" y="183"/>
      <point x="470" y="153"/>
      <point x="411" y="153" type="curve" smooth="yes"/>
      <point x="337" y="153"/>
      <point x="269" y="187"/>
      <point x="269" y="276" type="curve" smooth="yes"/>
      <point x="269" y="361"/>
      <point x="337" y="406"/>
      <point x="420" y="406" type="curve" smooth="yes"/>
      <point x="474" y="406"/>
      <point x="517" y="391"/>
      <point x="549" y="372" type="curve"/>
      <point x="549" y="440" type="line" smooth="yes"/>
      <point x="549" y="518"/>
      <point x="512" y="546"/>
      <point x="431" y="546" type="curve" smooth="yes"/>
      <point x="386" y="546"/>
      <point x="350" y="532"/>
      <point x="316" y="516" type="curve"/>
      <point x="309" y="535" type="line"/>
      <point x="345" y="552"/>
      <point x="384" y="565"/>
      <point x="433" y="565" type="curve" smooth="yes"/>
      <point x="521" y="565"/>
      <point x="569" y="535"/>
      <point x="569" y="441" type="curve" smooth="yes"/>
      <point x="569" y="260" type="line" smooth="yes"/>
      <point x="569" y="203"/>
      <point x="598" y="170"/>
      <point x="653" y="170" type="curve" smooth="yes"/>
      <point x="722" y="170"/>
      <point x="777" y="223"/>
      <point x="777" y="360" type="curve" smooth="yes"/>
      <point x="777" y="545"/>
      <point x="635" y="693"/>
      <point x="435" y="693" type="curve" smooth="yes"/>
      <point x="237" y="693"/>
      <point x="93" y="551"/>
      <point x="93" y="350" type="curve" smooth="yes"/>
      <point x="93" y="150"/>
      <point x="237" y="7"/>
      <point x="435" y="7" type="curve" smooth="yes"/>
      <point x="491" y="7"/>
      <point x="531" y="15"/>
      <point x="583" y="40" type="curve"/>
      <point x="589" y="23" type="line"/>
      <point x="532" y="-3"/>
      <point x="492" y="-11"/>
      <point x="435" y="-11" type="curve" smooth="yes"/>
      <point x="226" y="-11"/>
      <point x="74" y="137"/>
      <point x="74" y="350" type="curve" smooth="yes"/>
      <point x="74" y="559"/>
      <point x="225" y="711"/>
      <point x="435" y="711" type="curve" smooth="yes"/>
      <point x="648" y="711"/>
      <point x="796" y="550"/>
    </contour>
    <contour>
      <point x="549" y="252" type="curve"/>
      <point x="549" y="352" type="line"/>
      <point x="517" y="370"/>
      <point x="473" y="387"/>
      <point x="418" y="387" type="curve" smooth="yes"/>
      <point x="347" y="387"/>
      <point x="290" y="348"/>
      <point x="290" y="277" type="curve" smooth="yes"/>
      <point x="290" y="202"/>
      <point x="346" y="172"/>
      <point x="413" y="172" type="curve" smooth="yes"/>
      <point x="469" y="172"/>
      <point x="519" y="205"/>
    </contour>
  </outline>
</glyph>
<glyph name="A" format="1">
  <advance width="650"/>
  <unicode hex="0041"/>
  <outline>
    <contour>
      <point x="529" y="0" type="line"/>
      <point x="507" y="0" type="line"/>
      <point x="472" y="204" type="line"/>
      <point x="148" y="204" type="line"/>
      <point x="42" y="0" type="line"/>
      <point x="19" y="0" type="line"/>
      <point x="385" y="703" type="line"/>
      <point x="409" y="703" type="line"/>
    </contour>
    <contour>
      <point x="469" y="224" type="line"/>
      <point x="405" y="597" type="line" smooth="yes"/>
      <point x="403" y="608"/>
      <point x="394" y="670"/>
      <point x="393" y="677" type="curve"/>
      <point x="390" y="670"/>
      <point x="360" y="611"/>
      <point x="354" y="599" type="curve" smooth="yes"/>
      <point x="159" y="224" type="line"/>
    </contour>
  </outline>
</glyph>
<glyph name="B" format="1">
  <advance width="588"/>
  <unicode hex="0042"/>
  <outline>
    <contour>
      <point x="531" y="560" type="curve" smooth="yes"/>
      <point x="531" y="453"/>
      <point x="455" y="392"/>
      <point x="382" y="380" type="curve"/>
      <point x="452" y="372"/>
      <point x="514" y="317"/>
      <point x="514" y="221" type="curve" smooth="yes"/>
      <point x="514" y="92"/>
      <point x="421" y="0"/>
      <point x="253" y="0" type="curve" smooth="yes"/>
      <point x="49" y="0" type="line"/>
      <point x="173" y="700" type="line"/>
      <point x="357" y="700" type="line" smooth="yes"/>
      <point x="460" y="700"/>
      <point x="531" y="661"/>
    </contour>
    <contour>
      <point x="509" y="559" type="curve" smooth="yes"/>
      <point x="509" y="645"/>
      <point x="449" y="680"/>
      <point x="356" y="680" type="curve" smooth="yes"/>
      <point x="192" y="680" type="line"/>
      <point x="140" y="389" type="line"/>
      <point x="333" y="389" type="line" smooth="yes"/>
      <point x="425" y="389"/>
      <point x="509" y="457"/>
    </contour>
    <contour>
      <point x="492" y="221" type="curve" smooth="yes"/>
      <point x="492" y="330"/>
      <point x="414" y="369"/>
      <point x="330" y="369" type="curve" smooth="yes"/>
      <point x="136" y="369" type="line"/>
      <point x="75" y="20" type="line"/>
      <point x="256" y="20" type="line" smooth="yes"/>
      <point x="408" y="20"/>
      <point x="492" y="103"/>
    </contour>
  </outline>
</glyph>
<glyph name="C" format="1">
  <advance width="609"/>
  <unicode hex="0043"/>
  <outline>
    <contour>
      <point x="593" y="629" type="curve"/>
      <point x="576" y="616" type="line"/>
      <point x="543" y="658"/>
      <point x="486" y="691"/>
      <point x="410" y="691" type="curve" smooth="yes"/>
      <point x="223" y="691"/>
      <point x="99" y="487"/>
      <point x="99" y="276" type="curve" smooth="yes"/>
      <point x="99" y="106"/>
      <point x="191" y="9"/>
      <point x="323" y="9" type="curve" smooth="yes"/>
      <point x="383" y="9"/>
      <point x="439" y="30"/>
      <point x="492" y="74" type="curve"/>
      <point x="505" y="58" type="line"/>
      <point x="453" y="13"/>
      <point x="388" y="-11"/>
      <point x="321" y="-11" type="curve" smooth="yes"/>
      <point x="177" y="-11"/>
      <point x="77" y="94"/>
      <point x="77" y="275" type="curve" smooth="yes"/>
      <point x="77" y="497"/>
      <point x="207" y="711"/>
      <point x="412" y="711" type="curve" smooth="yes"/>
      <point x="494" y="711"/>
      <point x="557" y="677"/>
    </contour>
  </outline>
</glyph>
<glyph name="D" format="1">
  <advance width="659"/>
  <unicode hex="0044"/>
  <outline>
    <contour>
      <point x="600" y="428" type="curve" smooth="yes"/>
      <point x="600" y="164"/>
      <point x="451" y="0"/>
      <point x="222" y="0" type="curve" smooth="yes"/>
      <point x="50" y="0" type="line"/>
      <point x="174" y="700" type="line"/>
      <point x="332" y="700" type="line" smooth="yes"/>
      <point x="499" y="700"/>
      <point x="600" y="613"/>
    </contour>
    <contour>
      <point x="578" y="427" type="curve" smooth="yes"/>
      <point x="578" y="600"/>
      <point x="486" y="680"/>
      <point x="329" y="680" type="curve" smooth="yes"/>
      <point x="193" y="680" type="line"/>
      <point x="76" y="20" type="line"/>
      <point x="225" y="20" type="line" smooth="yes"/>
      <point x="442" y="20"/>
      <point x="578" y="184"/>
    </contour>
  </outline>
</glyph>
<glyph name="E" format="1">
  <advance width="528"/>
  <unicode hex="0045"/>
  <outline>
    <contour>
      <point x="547" y="700" type="line"/>
      <point x="543" y="680" type="line"/>
      <point x="193" y="680" type="line"/>
      <point x="140" y="383" type="line"/>
      <point x="359" y="383" type="line"/>
      <point x="355" y="363" type="line"/>
      <point x="136" y="363" type="line"/>
      <point x="76" y="20" type="line"/>
      <point x="443" y="20" type="line"/>
      <point x="439" y="0" type="line"/>
      <point x="50" y="0" type="line"/>
      <point x="174" y="700" type="line"/>
    </contour>
  </outline>
</glyph>
<glyph name="F" format="1">
  <advance width="501"/>
  <unicode hex="0046"/>
  <outline>
    <contour>
      <point x="534" y="700" type="line"/>
      <point x="530" y="680" type="line"/>
      <point x="193" y="680" type="line"/>
      <point x="138" y="371" type="line"/>
      <point x="347" y="371" type="line"/>
      <point x="343" y="350" type="line"/>
      <point x="134" y="350" type="line"/>
      <point x="72" y="0" type="line"/>
      <point x="50" y="0" type="line"/>
      <point x="174" y="700" type="line"/>
    </contour>
  </outline>
</glyph>
<glyph name="G" format="1">
  <advance width="660"/>
  <unicode hex="0047"/>
  <outline>
    <contour>
      <point x="610" y="613" type="curve"/>
      <point x="592" y="600" type="line"/>
      <point x="551" y="655"/>
      <point x="495" y="691"/>
      <point x="404" y="691" type="curve" smooth="yes"/>
      <point x="219" y="691"/>
      <point x="99" y="482"/>
      <point x="99" y="272" type="curve" smooth="yes"/>
      <point x="99" y="99"/>
      <point x="188" y="9"/>
      <point x="324" y="9" type="curve" smooth="yes"/>
      <point x="453" y="9"/>
      <point x="543" y="88"/>
      <point x="565" y="262" type="curve" smooth="yes"/>
      <point x="569" y="293" type="line"/>
      <point x="399" y="293" type="line"/>
      <point x="403" y="314" type="line"/>
      <point x="594" y="314" type="line"/>
      <point x="588" y="268" type="line" smooth="yes"/>
      <point x="561" y="64"/>
      <point x="460" y="-11"/>
      <point x="322" y="-11" type="curve" smooth="yes"/>
      <point x="175" y="-11"/>
      <point x="77" y="87"/>
      <point x="77" y="270" type="curve" smooth="yes"/>
      <point x="77" y="490"/>
      <point x="200" y="711"/>
      <point x="406" y="711" type="curve" smooth="yes"/>
      <point x="505" y="711"/>
      <point x="566" y="673"/>
    </contour>
  </outline>
</glyph>
<glyph name="H" format="1">
  <advance width="660"/>
  <unicode hex="0048"/>
  <outline>
    <contour>
      <point x="634" y="700" type="line"/>
      <point x="510" y="0" type="line"/>
      <point x="488" y="0" type="line"/>
      <point x="551" y="356" type="line"/>
      <point x="135" y="356" type="line"/>
      <point x="72" y="0" type="line"/>
      <point x="50" y="0" type="line"/>
      <point x="174" y="700" type="line"/>
      <point x="196" y="700" type="line"/>
      <point x="139" y="377" type="line"/>
      <point x="555" y="377" type="line"/>
      <point x="612" y="700" type="line"/>
    </contour>
  </outline>
</glyph>
<glyph name="I" format="1">
  <advance width="231"/>
  <unicode hex="0049"/>
  <outline>
    <contour>
      <point x="80" y="0" type="line"/>
      <point x="58" y="0" type="line"/>
      <point x="182" y="700" type="line"/>
      <point x="204" y="700" type="line"/>
    </contour>
  </outline>
</glyph>
<glyph name="J" format="1">
  <advance width="543"/>
  <unicode hex="004A"/>
  <outline>
    <contour>
      <point x="525" y="700" type="line"/>
      <point x="440" y="224" type="line" smooth="yes"/>
      <point x="425" y="141"/>
      <point x="400" y="84"/>
      <point x="357" y="43" type="curve" smooth="yes"/>
      <point x="321" y="8"/>
      <point x="271" y="-11"/>
      <point x="210" y="-11" type="curve" smooth="yes"/>
      <point x="89" y="-11"/>
      <point x="41" y="63"/>
      <point x="18" y="123" type="curve"/>
      <point x="38" y="130" type="line"/>
      <point x="66" y="61"/>
      <point x="115" y="9"/>
      <point x="210" y="9" type="curve" smooth="yes"/>
      <point x="324" y="9"/>
      <point x="393" y="81"/>
      <point x="418" y="222" type="curve" smooth="yes"/>
      <point x="503" y="700" type="line"/>
    </contour>
  </outline>
</glyph>
<glyph name="K" format="1">
  <advance width="593"/>
  <unicode hex="004B"/>
  <outline>
    <contour>
      <point x="301" y="394" type="line"/>
      <point x="105" y="188" type="line"/>
      <point x="72" y="0" type="line"/>
      <point x="50" y="0" type="line"/>
      <point x="174" y="700" type="line"/>
      <point x="196" y="700" type="line"/>
      <point x="111" y="223" type="line"/>
      <point x="565" y="700" type="line"/>
      <point x="592" y="700" type="line"/>
      <point x="317" y="411" type="line"/>
      <point x="496" y="0" type="line"/>
      <point x="474" y="0" type="line"/>
    </contour>
  </outline>
</glyph>
<glyph name="L" format="1">
  <advance width="507"/>
  <unicode hex="004C"/>
  <outline>
    <contour>
      <point x="416" y="20" type="line"/>
      <point x="412" y="0" type="line"/>
      <point x="50" y="0" type="line"/>
      <point x="174" y="700" type="line"/>
      <point x="196" y="700" type="line"/>
      <point x="76" y="20" type="line"/>
    </contour>
  </outline>
</glyph>
<glyph name="M" format="1">
  <advance width="787"/>
  <unicode hex="004D"/>
  <outline>
    <contour>
      <point x="639" y="0" type="line"/>
      <point x="617" y="0" type="line"/>
      <point x="732" y="650" type="line"/>
      <point x="345" y="-8" type="line"/>
      <point x="343" y="-8" type="line"/>
      <point x="187" y="650" type="line"/>
      <point x="72" y="0" type="line"/>
      <point x="50" y="0" type="line"/>
      <point x="174" y="700" type="line"/>
      <point x="196" y="700" type="line"/>
      <point x="352" y="42" type="line"/>
      <point x="738" y="700" type="line"/>
      <point x="763" y="700" type="line"/>
    </contour>
  </outline>
</glyph>
<glyph name="N" format="1">
  <advance width="657"/>
  <unicode hex="004E"/>
  <outline>
    <contour>
      <point x="501" y="0" type="line"/>
      <point x="477" y="0" type="line"/>
      <point x="190" y="667" type="line"/>
      <point x="72" y="0" type="line"/>
      <point x="50" y="0" type="line"/>
      <point x="174" y="700" type="line"/>
      <point x="199" y="700" type="line"/>
      <point x="485" y="35" type="line"/>
      <point x="603" y="700" type="line"/>
      <point x="625" y="700" type="line"/>
    </contour>
  </outline>
</glyph>
<glyph name="O" format="1">
  <advance width="718"/>
  <unicode hex="004F"/>
  <outline>
    <contour>
      <point x="75" y="272" type="curve" smooth="yes"/>
      <point x="75" y="486"/>
      <point x="199" y="711"/>
      <point x="415" y="711" type="curve" smooth="yes"/>
      <point x="559" y="711"/>
      <point x="663" y="599"/>
      <point x="663" y="434" type="curve" smooth="yes"/>
      <point x="664" y="235"/>
      <point x="548" y="-11"/>
      <point x="328" y="-11" type="curve" smooth="yes"/>
      <point x="184" y="-11"/>
      <point x="75" y="94"/>
    </contour>
    <contour>
      <point x="641" y="433" type="curve" smooth="yes"/>
      <point x="641" y="584"/>
      <point x="548" y="691"/>
      <point x="416" y="691" type="curve" smooth="yes"/>
      <point x="212" y="691"/>
      <point x="97" y="475"/>
      <point x="97" y="273" type="curve" smooth="yes"/>
      <point x="97" y="109"/>
      <point x="195" y="9"/>
      <point x="327" y="9" type="curve" smooth="yes"/>
      <point x="532" y="9"/>
      <point x="642" y="244"/>
    </contour>
  </outline>
</glyph>
<glyph name="P" format="1">
  <advance width="572"/>
  <unicode hex="0050"/>
  <outline>
    <contour>
      <point x="567" y="547" type="curve" smooth="yes"/>
      <point x="567" y="404"/>
      <point x="482" y="304"/>
      <point x="284" y="304" type="curve" smooth="yes"/>
      <point x="126" y="304" type="line"/>
      <point x="72" y="0" type="line"/>
      <point x="50" y="0" type="line"/>
      <point x="174" y="700" type="line"/>
      <point x="358" y="700" type="line" smooth="yes"/>
      <point x="487" y="700"/>
      <point x="567" y="655"/>
    </contour>
    <contour>
      <point x="544" y="545" type="curve" smooth="yes"/>
      <point x="544" y="641"/>
      <point x="473" y="680"/>
      <point x="356" y="680" type="curve" smooth="yes"/>
      <point x="193" y="680" type="line"/>
      <point x="130" y="324" type="line"/>
      <point x="286" y="324" type="line" smooth="yes"/>
      <point x="469" y="324"/>
      <point x="544" y="418"/>
    </contour>
  </outline>
</glyph>
<glyph name="Q" format="1">
  <advance width="721"/>
  <unicode hex="0051"/>
  <outline>
    <contour>
      <point x="665" y="428" type="curve" smooth="yes"/>
      <point x="665" y="265"/>
      <point x="597" y="108"/>
      <point x="482" y="35" type="curve"/>
      <point x="511" y="-22" type="line"/>
      <point x="493" y="-33" type="line"/>
      <point x="464" y="23" type="line"/>
      <point x="423" y="2"/>
      <point x="378" y="-11"/>
      <point x="328" y="-11" type="curve" smooth="yes"/>
      <point x="179" y="-11"/>
      <point x="77" y="93"/>
      <point x="77" y="271" type="curve" smooth="yes"/>
      <point x="77" y="498"/>
      <point x="210" y="711"/>
      <point x="416" y="711" type="curve" smooth="yes"/>
      <point x="565" y="711"/>
      <point x="665" y="605"/>
    </contour>
    <contour>
      <point x="643" y="424" type="curve" smooth="yes"/>
      <point x="643" y="591"/>
      <point x="553" y="691"/>
      <point x="413" y="691" type="curve" smooth="yes"/>
      <point x="224" y="691"/>
      <point x="99" y="490"/>
      <point x="99" y="274" type="curve" smooth="yes"/>
      <point x="99" y="107"/>
      <point x="191" y="9"/>
      <point x="331" y="9" type="curve" smooth="yes"/>
      <point x="376" y="9"/>
      <point x="417" y="21"/>
      <point x="454" y="40" type="curve"/>
      <point x="398" y="154" type="line"/>
      <point x="416" y="164" type="line"/>
      <point x="471" y="52" type="line"/>
      <point x="579" y="121"/>
      <point x="643" y="270"/>
    </contour>
  </outline>
</glyph>
<glyph name="R" format="1">
  <advance width="599"/>
  <unicode hex="0052"/>
  <outline>
    <contour>
      <point x="356" y="325" type="curve"/>
      <point x="466" y="0" type="line"/>
      <point x="442" y="0" type="line"/>
      <point x="334" y="322" type="line"/>
      <point x="320" y="321"/>
      <point x="306" y="321"/>
      <point x="291" y="321" type="curve" smooth="yes"/>
      <point x="129" y="321" type="line"/>
      <point x="72" y="0" type="line"/>
      <point x="50" y="0" type="line"/>
      <point x="174" y="700" type="line"/>
      <point x="359" y="700" type="line" smooth="yes"/>
      <point x="484" y="700"/>
      <point x="570" y="658"/>
      <point x="570" y="548" type="curve" smooth="yes"/>
      <point x="570" y="434"/>
      <point x="510" y="344"/>
    </contour>
    <contour>
      <point x="548" y="547" type="curve" smooth="yes"/>
      <point x="548" y="642"/>
      <point x="476" y="680"/>
      <point x="357" y="680" type="curve" smooth="yes"/>
      <point x="193" y="680" type="line"/>
      <point x="133" y="342" type="line"/>
      <point x="294" y="342" type="line" smooth="yes"/>
      <point x="482" y="342"/>
      <point x="548" y="429"/>
    </contour>
  </outline>
</glyph>
<glyph name="S" format="1">
  <advance width="561"/>
  <unicode hex="0053"/>
  <outline>
    <contour>
      <point x="42" y="93" type="line"/>
      <point x="81" y="54"/>
      <point x="155" y="9"/>
      <point x="250" y="9" type="curve" smooth="yes"/>
      <point x="364" y="9"/>
      <point x="444" y="80"/>
      <point x="444" y="183" type="curve" smooth="yes"/>
      <point x="444" y="253"/>
      <point x="401" y="297"/>
      <point x="279" y="354" type="curve" smooth="yes"/>
      <point x="155" y="412"/>
      <point x="118" y="459"/>
      <point x="118" y="530" type="curve" smooth="yes"/>
      <point x="118" y="623"/>
      <point x="177" y="711"/>
      <point x="327" y="711" type="curve" smooth="yes"/>
      <point x="428" y="711"/>
      <point x="493" y="670"/>
      <point x="531" y="637" type="curve"/>
      <point x="517" y="621" type="line"/>
      <point x="481" y="652"/>
      <point x="420" y="691"/>
      <point x="327" y="691" type="curve" smooth="yes"/>
      <point x="193" y="691"/>
      <point x="140" y="613"/>
      <point x="140" y="530" type="curve" smooth="yes"/>
      <point x="140" y="465"/>
      <point x="177" y="426"/>
      <point x="289" y="374" type="curve" smooth="yes"/>
      <point x="423" y="311"/>
      <point x="466" y="259"/>
      <point x="466" y="183" type="curve" smooth="yes"/>
      <point x="466" y="68"/>
      <point x="378" y="-11"/>
      <point x="250" y="-11" type="curve" smooth="yes"/>
      <point x="149" y="-11"/>
      <point x="69" y="36"/>
      <point x="26" y="77" type="curve"/>
    </contour>
  </outline>
</glyph>
<glyph name="T" format="1">
  <advance width="560"/>
  <unicode hex="0054"/>
  <outline>
    <contour>
      <point x="585" y="700" type="line"/>
      <point x="581" y="680" type="line"/>
      <point x="359" y="680" type="line"/>
      <point x="239" y="0" type="line"/>
      <point x="217" y="0" type="line"/>
      <point x="337" y="680" type="line"/>
      <point x="114" y="680" type="line"/>
      <point x="118" y="700" type="line"/>
    </contour>
  </outline>
</glyph>
<glyph name="U" format="1">
  <advance width="655"/>
  <unicode hex="0055"/>
  <outline>
    <contour>
      <point x="632" y="700" type="line"/>
      <point x="553" y="247" type="line" smooth="yes"/>
      <point x="520" y="59"/>
      <point x="427" y="-11"/>
      <point x="295" y="-11" type="curve" smooth="yes"/>
      <point x="128" y="-11"/>
      <point x="58" y="84"/>
      <point x="90" y="262" type="curve" smooth="yes"/>
      <point x="169" y="700" type="line"/>
      <point x="191" y="700" type="line"/>
      <point x="112" y="263" type="line" smooth="yes"/>
      <point x="81" y="92"/>
      <point x="144" y="9"/>
      <point x="298" y="9" type="curve" smooth="yes"/>
      <point x="413" y="9"/>
      <point x="500" y="73"/>
      <point x="531" y="249" type="curve" smooth="yes"/>
      <point x="610" y="700" type="line"/>
    </contour>
  </outline>
</glyph>
<glyph name="V" format="1">
  <advance width="647"/>
  <unicode hex="0056"/>
  <outline>
    <contour>
      <point x="650" y="700" type="line"/>
      <point x="284" y="-3" type="line"/>
      <point x="260" y="-3" type="line"/>
      <point x="140" y="700" type="line"/>
      <point x="162" y="700" type="line"/>
      <point x="266" y="91" type="line" smooth="yes"/>
      <point x="268" y="81"/>
      <point x="275" y="29"/>
      <point x="276" y="23" type="curve"/>
      <point x="278" y="29"/>
      <point x="305" y="81"/>
      <point x="310" y="91" type="curve" smooth="yes"/>
      <point x="627" y="700" type="line"/>
    </contour>
  </outline>
</glyph>
<glyph name="W" format="1">
  <advance width="884"/>
  <unicode hex="0057"/>
  <outline>
    <contour>
      <point x="882" y="700" type="line"/>
      <point x="600" y="-4" type="line"/>
      <point x="577" y="-4" type="line"/>
      <point x="507" y="669" type="line"/>
      <point x="203" y="-4" type="line"/>
      <point x="178" y="-4" type="line"/>
      <point x="145" y="700" type="line"/>
      <point x="167" y="700" type="line"/>
      <point x="196" y="28" type="line"/>
      <point x="501" y="701" type="line"/>
      <point x="523" y="701" type="line"/>
      <point x="592" y="28" type="line"/>
      <point x="860" y="700" type="line"/>
    </contour>
  </outline>
</glyph>
<glyph name="X" format="1">
  <advance width="598"/>
  <unicode hex="0058"/>
  <outline>
    <contour>
      <point x="323" y="366" type="line"/>
      <point x="482" y="0" type="line"/>
      <point x="459" y="0" type="line"/>
      <point x="308" y="347" type="line"/>
      <point x="34" y="0" type="line"/>
      <point x="10" y="0" type="line"/>
      <point x="299" y="367" type="line"/>
      <point x="155" y="700" type="line"/>
      <point x="178" y="700" type="line"/>
      <point x="314" y="386" type="line"/>
      <point x="562" y="700" type="line"/>
      <point x="586" y="700" type="line"/>
    </contour>
  </outline>
</glyph>
<glyph name="Y" format="1">
  <advance width="615"/>
  <unicode hex="0059"/>
  <outline>
    <contour>
      <point x="627" y="700" type="line"/>
      <point x="319" y="294" type="line"/>
      <point x="268" y="0" type="line"/>
      <point x="246" y="0" type="line"/>
      <point x="297" y="294" type="line"/>
      <point x="134" y="700" type="line"/>
      <point x="158" y="700" type="line"/>
      <point x="312" y="317" type="line"/>
      <point x="601" y="700" type="line"/>
    </contour>
  </outline>
</glyph>
<glyph name="Z" format="1">
  <advance width="585"/>
  <unicode hex="005A"/>
  <outline>
    <contour>
      <point x="462" y="0" type="line"/>
      <point x="12" y="0" type="line"/>
      <point x="16" y="20" type="line"/>
      <point x="556" y="680" type="line"/>
      <point x="153" y="680" type="line"/>
      <point x="157" y="700" type="line"/>
      <point x="586" y="700" type="line"/>
      <point x="582" y="680" type="line"/>
      <point x="42" y="20" type="line"/>
      <point x="466" y="20" type="line"/>
    </contour>
  </outline>
</glyph>
<glyph name="bracketleft" format="1">
  <advance width="320"/>
  <unicode hex="005B"/>
  <outline>
    <contour>
      <point x="327" y="700" type="line"/>
      <point x="323" y="682" type="line"/>
      <point x="195" y="682" type="line"/>
      <point x="58" y="-92" type="line"/>
      <point x="187" y="-92" type="line"/>
      <point x="184" y="-110" type="line"/>
      <point x="34" y="-110" type="line"/>
      <point x="176" y="700" type="line"/>
    </contour>
  </outline>
</glyph>
<glyph name="backslash" format="1">
  <advance width="406"/>
  <unicode hex="005C"/>
  <outline>
    <contour>
      <point x="292" y="-90" type="line"/>
      <point x="271" y="-90" type="line"/>
      <point x="138" y="790" type="line"/>
      <point x="158" y="790" type="line"/>
    </contour>
  </outline>
</glyph>
<glyph name="bracketright" format="1">
  <advance width="320"/>
  <unicode hex="005D"/>
  <outline>
    <contour>
      <point x="291" y="700" type="line"/>
      <point x="148" y="-110" type="line"/>
      <point x="-2" y="-110" type="line"/>
      <point x="1" y="-92" type="line"/>
      <point x="130" y="-92" type="line"/>
      <point x="267" y="682" type="line"/>
      <point x="137" y="682" type="line"/>
      <point x="141" y="700" type="line"/>
    </contour>
  </outline>
</glyph>
<glyph name="asciicircum" format="1">
  <advance width="544"/>
  <unicode hex="005E"/>
  <outline>
    <contour>
      <point x="498" y="382" type="line"/>
      <point x="475" y="382" type="line"/>
      <point x="343" y="677" type="line"/>
      <point x="107" y="382" type="line"/>
      <point x="81" y="382" type="line"/>
      <point x="337" y="700" type="line"/>
      <point x="354" y="700" type="line"/>
    </contour>
  </outline>
</glyph>
<glyph name="underscore" format="1">
  <advance width="500"/>
  <unicode hex="005F"/>
  <outline>
    <contour>
      <point x="433" y="-118" type="line"/>
      <point x="-67" y="-118" type="line"/>
      <point x="-64" y="-100" type="line"/>
      <point x="436" y="-100" type="line"/>
    </contour>
  </outline>
</glyph>
<glyph name="grave" format="1">
  <advance width="500"/>
  <unicode hex="0060"/>
  <outline>
    <contour>
      <point x="354" y="596" type="line"/>
      <point x="338" y="595" type="line"/>
      <point x="247" y="732" type="line"/>
      <point x="275" y="733" type="line"/>
    </contour>
  </outline>
</glyph>
<glyph name="a" format="1">
  <advance width="519"/>
  <unicode hex="0061"/>
  <outline>
    <contour>
      <point x="449" y="353" type="curve" smooth="yes"/>
      <point x="387" y="0" type="line"/>
      <point x="365" y="0" type="line"/>
      <point x="380" y="88" type="line"/>
      <point x="326" y="29"/>
      <point x="260" y="-11"/>
      <point x="181" y="-11" type="curve" smooth="yes"/>
      <point x="99" y="-11"/>
      <point x="26" y="31"/>
      <point x="26" y="135" type="curve" smooth="yes"/>
      <point x="26" y="247"/>
      <point x="106" y="317"/>
      <point x="236" y="317" type="curve" smooth="yes"/>
      <point x="309" y="317"/>
      <point x="377" y="287"/>
      <point x="411" y="265" type="curve"/>
      <point x="427" y="352" type="line" smooth="yes"/>
      <point x="430" y="371"/>
      <point x="433" y="389"/>
      <point x="433" y="406" type="curve" smooth="yes"/>
      <point x="433" y="473"/>
      <point x="397" y="516"/>
      <point x="288" y="516" type="curve" smooth="yes"/>
      <point x="233" y="516"/>
      <point x="166" y="495"/>
      <point x="142" y="483" type="curve"/>
      <point x="136" y="502" type="line"/>
      <point x="163" y="515"/>
      <point x="226" y="536"/>
      <point x="290" y="536" type="curve" smooth="yes"/>
      <point x="403" y="536"/>
      <point x="454" y="493"/>
      <point x="454" y="406" type="curve" smooth="yes"/>
      <point x="454" y="390"/>
      <point x="452" y="372"/>
    </contour>
    <contour>
      <point x="408" y="245" type="line"/>
      <point x="367" y="272"/>
      <point x="307" y="298"/>
      <point x="234" y="298" type="curve" smooth="yes"/>
      <point x="118" y="298"/>
      <point x="48" y="233"/>
      <point x="48" y="136" type="curve" smooth="yes"/>
      <point x="48" y="48"/>
      <point x="106" y="8"/>
      <point x="185" y="8" type="curve" smooth="yes"/>
      <point x="263" y="8"/>
      <point x="331" y="55"/>
      <point x="386" y="120" type="curve"/>
    </contour>
  </outline>
</glyph>
<glyph name="b" format="1">
  <advance width="545"/>
  <unicode hex="0062"/>
  <outline>
    <contour>
      <point x="162" y="717" type="line"/>
      <point x="186" y="729" type="line"/>
      <point x="135" y="438" type="line"/>
      <point x="169" y="480"/>
      <point x="243" y="535"/>
      <point x="320" y="535" type="curve" smooth="yes"/>
      <point x="422" y="535"/>
      <point x="489" y="472"/>
      <point x="489" y="348" type="curve" smooth="yes"/>
      <point x="489" y="189"/>
      <point x="417" y="-11"/>
      <point x="244" y="-11" type="curve" smooth="yes"/>
      <point x="183" y="-11"/>
      <point x="113" y="23"/>
      <point x="73" y="92" type="curve"/>
      <point x="57" y="0" type="line"/>
      <point x="35" y="0" type="line"/>
    </contour>
    <contour>
      <point x="129" y="406" type="curve"/>
      <point x="78" y="118" type="line"/>
      <point x="116" y="47"/>
      <point x="176" y="9"/>
      <point x="247" y="9" type="curve" smooth="yes"/>
      <point x="386" y="9"/>
      <point x="467" y="175"/>
      <point x="467" y="348" type="curve" smooth="yes"/>
      <point x="467" y="455"/>
      <point x="414" y="515"/>
      <point x="317" y="515" type="curve" smooth="yes"/>
      <point x="248" y="515"/>
      <point x="182" y="470"/>
    </contour>
  </outline>
</glyph>
<glyph name="c" format="1">
  <advance width="485"/>
  <unicode hex="0063"/>
  <outline>
    <contour>
      <point x="458" y="469" type="curve"/>
      <point x="444" y="455" type="line"/>
      <point x="420" y="481"/>
      <point x="376" y="515"/>
      <point x="302" y="515" type="curve" smooth="yes"/>
      <point x="186" y="515"/>
      <point x="72" y="394"/>
      <point x="72" y="203" type="curve" smooth="yes"/>
      <point x="72" y="71"/>
      <point x="141" y="9"/>
      <point x="243" y="9" type="curve" smooth="yes"/>
      <point x="295" y="9"/>
      <point x="342" y="26"/>
      <point x="377" y="53" type="curve"/>
      <point x="389" y="37" type="line"/>
      <point x="348" y="5"/>
      <point x="297" y="-11"/>
      <point x="240" y="-11" type="curve" smooth="yes"/>
      <point x="129" y="-11"/>
      <point x="50" y="59"/>
      <point x="50" y="203" type="curve" smooth="yes"/>
      <point x="50" y="408"/>
      <point x="173" y="535"/>
      <point x="302" y="535" type="curve" smooth="yes"/>
      <point x="384" y="535"/>
      <point x="432" y="497"/>
    </contour>
  </outline>
</glyph>
<glyph name="e" format="1">
  <advance width="533"/>
  <unicode hex="0065"/>
  <outline>
    <contour>
      <point x="76" y="257" type="line"/>
      <point x="74" y="240"/>
      <point x="73" y="222"/>
      <point x="73" y="203" type="curve" smooth="yes"/>
      <point x="73" y="59"/>
      <point x="157" y="9"/>
      <point x="252" y="9" type="curve" smooth="yes"/>
      <point x="306" y="9"/>
      <point x="348" y="21"/>
      <point x="392" y="42" type="curve"/>
      <point x="400" y="24" type="line"/>
      <point x="354" y="2"/>
      <point x="308" y="-11"/>
      <point x="250" y="-11" type="curve" smooth="yes"/>
      <point x="146" y="-11"/>
      <point x="51" y="44"/>
      <point x="51" y="201" type="curve" smooth="yes"/>
      <point x="51" y="400"/>
      <point x="167" y="536"/>
      <point x="297" y="536" type="curve" smooth="yes"/>
      <point x="420" y="536"/>
      <point x="471" y="437"/>
      <point x="471" y="324" type="curve" smooth="yes"/>
      <point x="471" y="302"/>
      <point x="469" y="279"/>
      <point x="466" y="257" type="curve"/>
    </contour>
    <contour>
      <point x="78" y="275" type="curve"/>
      <point x="447" y="275" type="line"/>
      <point x="449" y="291"/>
      <point x="450" y="307"/>
      <point x="450" y="323" type="curve" smooth="yes"/>
      <point x="450" y="424"/>
      <point x="409" y="516"/>
      <point x="297" y="516" type="curve" smooth="yes"/>
      <point x="202" y="516"/>
      <point x="102" y="429"/>
    </contour>
  </outline>
</glyph>
<glyph name="f" format="1">
  <advance width="329"/>
  <unicode hex="0066"/>
  <outline>
    <contour>
      <point x="373" y="709" type="curve"/>
      <point x="369" y="691" type="line"/>
      <point x="354" y="697"/>
      <point x="328" y="705"/>
      <point x="303" y="705" type="curve" smooth="yes"/>
      <point x="255" y="705"/>
      <point x="223" y="686"/>
      <point x="210" y="610" type="curve" smooth="yes"/>
      <point x="195" y="525" type="line"/>
      <point x="327" y="525" type="line"/>
      <point x="324" y="507" type="line"/>
      <point x="192" y="507" type="line"/>
      <point x="102" y="0" type="line"/>
      <point x="80" y="0" type="line"/>
      <point x="170" y="507" type="line"/>
      <point x="88" y="507" type="line"/>
      <point x="92" y="525" type="line"/>
      <point x="173" y="525" type="line"/>
      <point x="188" y="611" type="line" smooth="yes"/>
      <point x="204" y="703"/>
      <point x="246" y="724"/>
      <point x="302" y="724" type="curve" smooth="yes"/>
      <point x="333" y="724"/>
      <point x="359" y="715"/>
    </contour>
  </outline>
</glyph>
<glyph name="g" format="1">
  <advance width="545"/>
  <unicode hex="0067"/>
  <outline>
    <contour>
      <point x="399" y="86" type="line"/>
      <point x="365" y="44"/>
      <point x="291" y="-11"/>
      <point x="214" y="-11" type="curve" smooth="yes"/>
      <point x="112" y="-11"/>
      <point x="45" y="52"/>
      <point x="45" y="176" type="curve" smooth="yes"/>
      <point x="45" y="335"/>
      <point x="117" y="535"/>
      <point x="290" y="535" type="curve" smooth="yes"/>
      <point x="351" y="535"/>
      <point x="421" y="501"/>
      <point x="461" y="432" type="curve"/>
      <point x="477" y="525" type="line"/>
      <point x="499" y="525" type="line"/>
      <point x="413" y="40" type="line" smooth="yes"/>
      <point x="384" y="-126"/>
      <point x="304" y="-194"/>
      <point x="106" y="-195" type="curve"/>
      <point x="100" y="-174" type="line"/>
      <point x="287" y="-172"/>
      <point x="364" y="-116"/>
      <point x="391" y="40" type="curve" smooth="yes"/>
    </contour>
    <contour>
      <point x="405" y="118" type="curve"/>
      <point x="456" y="406" type="line"/>
      <point x="418" y="477"/>
      <point x="358" y="515"/>
      <point x="287" y="515" type="curve" smooth="yes"/>
      <point x="148" y="515"/>
      <point x="67" y="349"/>
      <point x="67" y="176" type="curve" smooth="yes"/>
      <point x="67" y="69"/>
      <point x="120" y="9"/>
      <point x="217" y="9" type="curve" smooth="yes"/>
      <point x="286" y="9"/>
      <point x="352" y="54"/>
    </contour>
  </outline>
</glyph>
<glyph name="i" format="1">
  <advance width="208"/>
  <unicode hex="0069"/>
  <outline>
    <contour>
      <point x="200" y="687" type="curve" smooth="yes"/>
      <point x="200" y="677"/>
      <point x="191" y="668"/>
      <point x="182" y="668" type="curve" smooth="yes"/>
      <point x="170" y="668"/>
      <point x="162" y="677"/>
      <point x="162" y="687" type="curve" smooth="yes"/>
      <point x="162" y="698"/>
      <point x="170" y="706"/>
      <point x="182" y="706" type="curve" smooth="yes"/>
      <point x="191" y="706"/>
      <point x="200" y="698"/>
    </contour>
    <contour>
      <point x="69" y="0" type="line"/>
      <point x="47" y="0" type="line"/>
      <point x="140" y="525" type="line"/>
      <point x="162" y="525" type="line"/>
    </contour>
  </outline>
</glyph>
<glyph name="j" format="1">
  <advance width="208"/>
  <unicode hex="006A"/>
  <outline>
    <contour>
      <point x="200" y="687" type="curve" smooth="yes"/>
      <point x="200" y="677"/>
      <point x="191" y="668"/>
      <point x="182" y="668" type="curve" smooth="yes"/>
      <point x="170" y="668"/>
      <point x="162" y="677"/>
      <point x="162" y="687" type="curve" smooth="yes"/>
      <point x="162" y="698"/>
      <point x="170" y="706"/>
      <point x="182" y="706" type="curve" smooth="yes"/>
      <point x="191" y="706"/>
      <point x="200" y="698"/>
    </contour>
    <contour>
      <point x="67" y="-12" type="line" smooth="yes"/>
      <point x="48" y="-121"/>
      <point x="18" y="-173"/>
      <point x="-71" y="-198" type="curve"/>
      <point x="-79" y="-178" type="line"/>
      <point x="1" y="-154"/>
      <point x="27" y="-114"/>
      <point x="45" y="-12" type="curve" smooth="yes"/>
      <point x="140" y="525" type="line"/>
      <point x="162" y="525" type="line"/>
    </contour>
  </outline>
</glyph>
<glyph name="k" format="1">
  <advance width="482"/>
  <unicode hex="006B"/>
  <outline>
    <contour>
      <point x="249" y="314" type="line"/>
      <point x="388" y="0" type="line"/>
      <point x="364" y="0" type="line"/>
      <point x="234" y="297" type="line"/>
      <point x="84" y="135" type="line"/>
      <point x="60" y="0" type="line"/>
      <point x="38" y="0" type="line"/>
      <point x="165" y="717" type="line"/>
      <point x="189" y="729" type="line"/>
      <point x="90" y="169" type="line"/>
      <point x="420" y="525" type="line"/>
      <point x="445" y="525" type="line"/>
    </contour>
  </outline>
</glyph>
<glyph name="l" format="1">
  <advance width="208"/>
  <unicode hex="006C"/>
  <outline>
    <contour>
      <point x="69" y="0" type="line"/>
      <point x="47" y="0" type="line"/>
      <point x="174" y="717" type="line"/>
      <point x="198" y="729" type="line"/>
    </contour>
  </outline>
</glyph>
<glyph name="m" format="1">
  <advance width="911"/>
  <unicode hex="006D"/>
  <outline>
    <contour>
      <point x="756" y="0" type="line"/>
      <point x="811" y="313" type="line" smooth="yes"/>
      <point x="815" y="335"/>
      <point x="817" y="355"/>
      <point x="817" y="373" type="curve" smooth="yes"/>
      <point x="817" y="475"/>
      <point x="755" y="516"/>
      <point x="664" y="516" type="curve" smooth="yes"/>
      <point x="571" y="516"/>
      <point x="499" y="455"/>
      <point x="477" y="327" type="curve" smooth="yes"/>
      <point x="420" y="0" type="line"/>
      <point x="398" y="0" type="line"/>
      <point x="453" y="313" type="line" smooth="yes"/>
      <point x="457" y="335"/>
      <point x="459" y="355"/>
      <point x="459" y="373" type="curve" smooth="yes"/>
      <point x="459" y="475"/>
      <point x="397" y="516"/>
      <point x="306" y="516" type="curve" smooth="yes"/>
      <point x="213" y="516"/>
      <point x="139" y="455"/>
      <point x="117" y="327" type="curve" smooth="yes"/>
      <point x="60" y="0" type="line"/>
      <point x="38" y="0" type="line"/>
      <point x="130" y="525" type="line"/>
      <point x="152" y="525" type="line"/>
      <point x="136" y="431" type="line"/>
      <point x="169" y="492"/>
      <point x="221" y="535"/>
      <point x="311" y="535" type="curve" smooth="yes"/>
      <point x="401" y="535"/>
      <point x="469" y="495"/>
      <point x="479" y="401" type="curve"/>
      <point x="500" y="456"/>
      <point x="553" y="535"/>
      <point x="669" y="535" type="curve" smooth="yes"/>
      <point x="765" y="535"/>
      <point x="839" y="488"/>
      <point x="839" y="376" type="curve" smooth="yes"/>
      <point x="839" y="358"/>
      <point x="837" y="337"/>
      <point x="833" y="315" type="curve" smooth="yes"/>
      <point x="778" y="0" type="line"/>
    </contour>
  </outline>
</glyph>
<glyph name="n" format="1">
  <advance width="560"/>
  <unicode hex="006E"/>
  <outline>
    <contour>
      <point x="487" y="376" type="curve" smooth="yes"/>
      <point x="487" y="358"/>
      <point x="485" y="337"/>
      <point x="481" y="315" type="curve" smooth="yes"/>
      <point x="426" y="0" type="line"/>
      <point x="404" y="0" type="line"/>
      <point x="459" y="313" type="line" smooth="yes"/>
      <point x="463" y="335"/>
      <point x="465" y="355"/>
      <point x="465" y="373" type="curve" smooth="yes"/>
      <point x="465" y="475"/>
      <point x="400" y="516"/>
      <point x="309" y="516" type="curve" smooth="yes"/>
      <point x="216" y="516"/>
      <point x="139" y="455"/>
      <point x="117" y="327" type="curve" smooth="yes"/>
      <point x="60" y="0" type="line"/>
      <point x="38" y="0" type="line"/>
      <point x="130" y="525" type="line"/>
      <point x="152" y="525" type="line"/>
      <point x="136" y="431" type="line"/>
      <point x="169" y="492"/>
      <point x="224" y="535"/>
      <point x="314" y="535" type="curve" smooth="yes"/>
      <point x="411" y="535"/>
      <point x="487" y="488"/>
    </contour>
  </outline>
</glyph>
<glyph name="o" format="1">
  <advance width="564"/>
  <unicode hex="006F"/>
  <outline>
    <contour>
      <point x="509" y="317" type="curve" smooth="yes"/>
      <point x="509" y="131"/>
      <point x="404" y="-10"/>
      <point x="250" y="-10" type="curve" smooth="yes"/>
      <point x="146" y="-10"/>
      <point x="50" y="55"/>
      <point x="50" y="210" type="curve" smooth="yes"/>
      <point x="50" y="397"/>
      <point x="158" y="535"/>
      <point x="307" y="535" type="curve" smooth="yes"/>
      <point x="409" y="535"/>
      <point x="509" y="472"/>
    </contour>
    <contour>
      <point x="72" y="210" type="curve" smooth="yes"/>
      <point x="72" y="72"/>
      <point x="156" y="10"/>
      <point x="249" y="10" type="curve" smooth="yes"/>
      <point x="393" y="10"/>
      <point x="487" y="145"/>
      <point x="487" y="317" type="curve" smooth="yes"/>
      <point x="487" y="456"/>
      <point x="400" y="515"/>
      <point x="308" y="515" type="curve" smooth="yes"/>
      <point x="169" y="515"/>
      <point x="72" y="382"/>
    </contour>
  </outline>
</glyph>
<glyph name="p" format="1">
  <advance width="545"/>
  <unicode hex="0070"/>
  <outline>
    <contour>
      <point x="128" y="525" type="line"/>
      <point x="150" y="525" type="line"/>
      <point x="135" y="438" type="line"/>
      <point x="169" y="480"/>
      <point x="243" y="535"/>
      <point x="320" y="535" type="curve" smooth="yes"/>
      <point x="422" y="535"/>
      <point x="489" y="472"/>
      <point x="489" y="348" type="curve" smooth="yes"/>
      <point x="489" y="189"/>
      <point x="417" y="-11"/>
      <point x="244" y="-11" type="curve" smooth="yes"/>
      <point x="183" y="-11"/>
      <point x="113" y="23"/>
      <point x="73" y="92" type="curve"/>
      <point x="27" y="-175" type="line"/>
      <point x="2" y="-187" type="line"/>
    </contour>
    <contour>
      <point x="129" y="406" type="curve"/>
      <point x="78" y="118" type="line"/>
      <point x="116" y="47"/>
      <point x="176" y="9"/>
      <point x="247" y="9" type="curve" smooth="yes"/>
      <point x="386" y="9"/>
      <point x="467" y="175"/>
      <point x="467" y="348" type="curve" smooth="yes"/>
      <point x="467" y="455"/>
      <point x="414" y="515"/>
      <point x="317" y="515" type="curve" smooth="yes"/>
      <point x="248" y="515"/>
      <point x="182" y="470"/>
    </contour>
  </outline>
</glyph>
<glyph name="r" format="1">
  <advance width="384"/>
  <unicode hex="0072"/>
  <outline>
    <contour>
      <point x="38" y="0" type="line"/>
      <point x="130" y="525" type="line"/>
      <point x="152" y="525" type="line"/>
      <point x="136" y="431" type="line"/>
      <point x="169" y="492"/>
      <point x="221" y="535"/>
      <point x="316" y="535" type="curve" smooth="yes"/>
      <point x="352" y="535"/>
      <point x="384" y="527"/>
      <point x="405" y="517" type="curve"/>
      <point x="397" y="497" type="line"/>
      <point x="376" y="507"/>
      <point x="346" y="515"/>
      <point x="313" y="515" type="curve" smooth="yes"/>
      <point x="217" y="515"/>
      <point x="141" y="462"/>
      <point x="117" y="327" type="curve" smooth="yes"/>
      <point x="60" y="0" type="line"/>
    </contour>
  </outline>
</glyph>
<glyph name="s" format="1">
  <advance width="431"/>
  <unicode hex="0073"/>
  <outline>
    <contour>
      <point x="392" y="476" type="curve"/>
      <point x="380" y="460" type="line"/>
      <point x="352" y="487"/>
      <point x="303" y="515"/>
      <point x="237" y="515" type="curve" smooth="yes"/>
      <point x="155" y="515"/>
      <point x="109" y="469"/>
      <point x="109" y="405" type="curve" smooth="yes"/>
      <point x="109" y="353"/>
      <point x="140" y="322"/>
      <point x="221" y="280" type="curve" smooth="yes"/>
      <point x="313" y="232"/>
      <point x="346" y="198"/>
      <point x="346" y="130" type="curve" smooth="yes"/>
      <point x="346" y="38"/>
      <point x="277" y="-11"/>
      <point x="179" y="-11" type="curve" smooth="yes"/>
      <point x="103" y="-11"/>
      <point x="46" y="18"/>
      <point x="11" y="53" type="curve"/>
      <point x="24" y="70" type="line"/>
      <point x="62" y="33"/>
      <point x="115" y="9"/>
      <point x="180" y="9" type="curve" smooth="yes"/>
      <point x="264" y="9"/>
      <point x="324" y="50"/>
      <point x="324" y="131" type="curve" smooth="yes"/>
      <point x="324" y="184"/>
      <point x="302" y="214"/>
      <point x="211" y="261" type="curve" smooth="yes"/>
      <point x="119" y="309"/>
      <point x="87" y="343"/>
      <point x="87" y="404" type="curve" smooth="yes"/>
      <point x="87" y="482"/>
      <point x="144" y="535"/>
      <point x="239" y="535" type="curve" smooth="yes"/>
      <point x="307" y="535"/>
      <point x="360" y="508"/>
    </contour>
  </outline>
</glyph>
<glyph name="t" format="1">
  <advance width="327"/>
  <unicode hex="0074"/>
  <outline>
    <contour>
      <point x="311" y="525" type="line"/>
      <point x="307" y="507" type="line"/>
      <point x="166" y="507" type="line"/>
      <point x="91" y="86" type="line" smooth="yes"/>
      <point x="90" y="78"/>
      <point x="89" y="69"/>
      <point x="89" y="62" type="curve" smooth="yes"/>
      <point x="89" y="30"/>
      <point x="110" y="11"/>
      <point x="152" y="11" type="curve" smooth="yes"/>
      <point x="185" y="11"/>
      <point x="217" y="20"/>
      <point x="238" y="30" type="curve"/>
      <point x="235" y="10" type="line"/>
      <point x="213" y="0"/>
      <point x="182" y="-8"/>
      <point x="149" y="-8" type="curve" smooth="yes"/>
      <point x="94" y="-8"/>
      <point x="67" y="16"/>
      <point x="67" y="60" type="curve" smooth="yes"/>
      <point x="67" y="67"/>
      <point x="68" y="75"/>
      <point x="69" y="83" type="curve" smooth="yes"/>
      <point x="144" y="507" type="line"/>
      <point x="74" y="507" type="line"/>
      <point x="78" y="525" type="line"/>
      <point x="147" y="525" type="line"/>
      <point x="181" y="716" type="line"/>
      <point x="205" y="728" type="line"/>
      <point x="169" y="525" type="line"/>
    </contour>
  </outline>
</glyph>
<glyph name="u" format="1">
  <advance width="560"/>
  <unicode hex="0075"/>
  <outline>
    <contour>
      <point x="64" y="149" type="curve" smooth="yes"/>
      <point x="64" y="167"/>
      <point x="66" y="188"/>
      <point x="70" y="210" type="curve" smooth="yes"/>
      <point x="125" y="525" type="line"/>
      <point x="147" y="525" type="line"/>
      <point x="92" y="212" type="line" smooth="yes"/>
      <point x="88" y="190"/>
      <point x="86" y="170"/>
      <point x="86" y="152" type="curve" smooth="yes"/>
      <point x="86" y="50"/>
      <point x="151" y="9"/>
      <point x="242" y="9" type="curve" smooth="yes"/>
      <point x="335" y="9"/>
      <point x="412" y="70"/>
      <point x="434" y="198" type="curve" smooth="yes"/>
      <point x="491" y="525" type="line"/>
      <point x="513" y="525" type="line"/>
      <point x="421" y="0" type="line"/>
      <point x="399" y="0" type="line"/>
      <point x="415" y="94" type="line"/>
      <point x="382" y="33"/>
      <point x="327" y="-10"/>
      <point x="237" y="-10" type="curve" smooth="yes"/>
      <point x="140" y="-10"/>
      <point x="64" y="37"/>
    </contour>
  </outline>
</glyph>
<glyph name="v" format="1">
  <advance width="495"/>
  <unicode hex="0076"/>
  <outline>
    <contour>
      <point x="495" y="525" type="line"/>
      <point x="210" y="-2" type="line"/>
      <point x="191" y="-2" type="line"/>
      <point x="92" y="525" type="line"/>
      <point x="115" y="525" type="line"/>
      <point x="205" y="29" type="line"/>
      <point x="472" y="525" type="line"/>
    </contour>
  </outline>
</glyph>
<glyph name="w" format="1">
  <advance width="709"/>
  <unicode hex="0077"/>
  <outline>
    <contour>
      <point x="706" y="525" type="line"/>
      <point x="475" y="-2" type="line"/>
      <point x="454" y="-2" type="line"/>
      <point x="394" y="491" type="line"/>
      <point x="162" y="-2" type="line"/>
      <point x="141" y="-2" type="line"/>
      <point x="95" y="525" type="line"/>
      <point x="116" y="525" type="line"/>
      <point x="158" y="36" type="line"/>
      <point x="389" y="527" type="line"/>
      <point x="411" y="527" type="line"/>
      <point x="470" y="37" type="line"/>
      <point x="684" y="525" type="line"/>
    </contour>
  </outline>
</glyph>
<glyph name="x" format="1">
  <advance width="479"/>
  <unicode hex="0078"/>
  <outline>
    <contour>
      <point x="253" y="276" type="line"/>
      <point x="373" y="0" type="line"/>
      <point x="350" y="0" type="line"/>
      <point x="238" y="257" type="line"/>
      <point x="37" y="0" type="line"/>
      <point x="12" y="0" type="line"/>
      <point x="229" y="277" type="line"/>
      <point x="121" y="525" type="line"/>
      <point x="144" y="525" type="line"/>
      <point x="244" y="296" type="line"/>
      <point x="422" y="525" type="line"/>
      <point x="447" y="525" type="line"/>
    </contour>
  </outline>
</glyph>
<glyph name="y" format="1">
  <advance width="497"/>
  <unicode hex="0079"/>
  <outline>
    <contour>
      <point x="187" y="2" type="line"/>
      <point x="88" y="525" type="line"/>
      <point x="110" y="525" type="line"/>
      <point x="203" y="31" type="line"/>
      <point x="471" y="525" type="line"/>
      <point x="493" y="525" type="line"/>
      <point x="107" y="-185" type="line"/>
      <point x="85" y="-185" type="line"/>
    </contour>
  </outline>
</glyph>
<glyph name="z" format="1">
  <advance width="486"/>
  <unicode hex="007A"/>
  <outline>
    <contour>
      <point x="461" y="525" type="line"/>
      <point x="459" y="507" type="line"/>
      <point x="42" y="19" type="line"/>
      <point x="42" y="18" type="line"/>
      <point x="373" y="18" type="line"/>
      <point x="370" y="0" type="line"/>
      <point x="13" y="0" type="line"/>
      <point x="16" y="18" type="line"/>
      <point x="432" y="507" type="line"/>
      <point x="130" y="507" type="line"/>
      <point x="133" y="525" type="line"/>
    </contour>
  </outline>
</glyph>
<glyph name="braceleft" format="1">
  <advance width="361"/>
  <unicode hex="007B"/>
  <outline>
    <contour>
      <point x="381" y="702" type="curve"/>
      <point x="378" y="684" type="line"/>
      <point x="285" y="675"/>
      <point x="236" y="646"/>
      <point x="214" y="522" type="curve" smooth="yes"/>
      <point x="189" y="383" type="line" smooth="yes"/>
      <point x="180" y="334"/>
      <point x="164" y="304"/>
      <point x="116" y="295" type="curve"/>
      <point x="153" y="285"/>
      <point x="167" y="257"/>
      <point x="158" y="207" type="curve" smooth="yes"/>
      <point x="135" y="73" type="line" smooth="yes"/>
      <point x="116" y="-39"/>
      <point x="154" y="-81"/>
      <point x="240" y="-91" type="curve"/>
      <point x="237" y="-109" type="line"/>
      <point x="141" y="-100"/>
      <point x="92" y="-55"/>
      <point x="115" y="80" type="curve" smooth="yes"/>
      <point x="138" y="215" type="line" smooth="yes"/>
      <point x="144" y="250"/>
      <point x="133" y="286"/>
      <point x="85" y="286" type="curve" smooth="yes"/>
      <point x="53" y="286" type="line"/>
      <point x="57" y="306" type="line"/>
      <point x="89" y="306" type="line" smooth="yes"/>
      <point x="137" y="306"/>
      <point x="160" y="338"/>
      <point x="167" y="377" type="curve" smooth="yes"/>
      <point x="193" y="523" type="line" smooth="yes"/>
      <point x="218" y="663"/>
      <point x="280" y="696"/>
    </contour>
  </outline>
</glyph>
<glyph name="bar" format="1">
  <advance width="281"/>
  <unicode hex="007C"/>
  <outline>
    <contour>
      <point x="72" y="-185" type="line"/>
      <point x="51" y="-185" type="line"/>
      <point x="225" y="800" type="line"/>
      <point x="246" y="800" type="line"/>
    </contour>
  </outline>
</glyph>
<glyph name="braceright" format="1">
  <advance width="361"/>
  <unicode hex="007D"/>
  <outline>
    <contour>
      <point x="-15" y="-109" type="curve"/>
      <point x="-12" y="-91" type="line"/>
      <point x="81" y="-82"/>
      <point x="130" y="-53"/>
      <point x="152" y="71" type="curve" smooth="yes"/>
      <point x="177" y="210" type="line" smooth="yes"/>
      <point x="186" y="259"/>
      <point x="202" y="289"/>
      <point x="250" y="298" type="curve"/>
      <point x="213" y="308"/>
      <point x="199" y="336"/>
      <point x="208" y="386" type="curve" smooth="yes"/>
      <point x="231" y="520" type="line" smooth="yes"/>
      <point x="250" y="632"/>
      <point x="212" y="674"/>
      <point x="126" y="684" type="curve"/>
      <point x="129" y="702" type="line"/>
      <point x="225" y="693"/>
      <point x="274" y="648"/>
      <point x="251" y="513" type="curve" smooth="yes"/>
      <point x="228" y="378" type="line" smooth="yes"/>
      <point x="222" y="343"/>
      <point x="233" y="307"/>
      <point x="281" y="307" type="curve" smooth="yes"/>
      <point x="313" y="307" type="line"/>
      <point x="309" y="287" type="line"/>
      <point x="277" y="287" type="line" smooth="yes"/>
      <point x="229" y="287"/>
      <point x="206" y="255"/>
      <point x="199" y="216" type="curve" smooth="yes"/>
      <point x="173" y="70" type="line" smooth="yes"/>
      <point x="148" y="-70"/>
      <point x="86" y="-103"/>
    </contour>
  </outline>
</glyph>
<glyph name="asciitilde" format="1">
  <advance width="528"/>
  <unicode hex="007E"/>
  <outline>
    <contour>
      <point x="475" y="407" type="line"/>
      <point x="446" y="349"/>
      <point x="415" y="323"/>
      <point x="369" y="323" type="curve" smooth="yes"/>
      <point x="335" y="323"/>
      <point x="304" y="341"/>
      <point x="275" y="360" type="curve" smooth="yes"/>
      <point x="246" y="378"/>
      <point x="218" y="397"/>
      <point x="187" y="397" type="curve" smooth="yes"/>
      <point x="150" y="397"/>
      <point x="125" y="376"/>
      <point x="100" y="326" type="curve"/>
      <point x="80" y="335" type="line"/>
      <point x="109" y="393"/>
      <point x="140" y="419"/>
      <point x="187" y="419" type="curve" smooth="yes"/>
      <point x="223" y="419"/>
      <point x="251" y="402"/>
      <point x="284" y="381" type="curve" smooth="yes"/>
      <point x="313" y="363"/>
      <point x="340" y="345"/>
      <point x="369" y="345" type="curve" smooth="yes"/>
      <point x="405" y="345"/>
      <point x="430" y="366"/>
      <point x="455" y="416" type="curve"/>
    </contour>
  </outline>
</glyph>
<glyph name="exclamdown" format="1">
  <advance width="229"/>
  <unicode hex="00A1"/>
  <outline>
    <contour>
      <point x="161" y="680" type="curve" smooth="yes"/>
      <point x="161" y="693"/>
      <point x="172" y="703"/>
      <point x="184" y="703" type="curve" smooth="yes"/>
      <point x="197" y="703"/>
      <point x="207" y="693"/>
      <point x="207" y="680" type="curve" smooth="yes"/>
      <point x="207" y="667"/>
      <point x="197" y="656"/>
      <point x="184" y="656" type="curve" smooth="yes"/>
      <point x="172" y="656"/>
      <point x="161" y="667"/>
    </contour>
    <contour>
      <point x="156" y="556" type="line"/>
      <point x="169" y="556" type="line"/>
      <point x="133" y="329" type="line"/>
      <point x="75" y="0" type="line"/>
      <point x="54" y="0" type="line"/>
      <point x="112" y="329" type="line"/>
    </contour>
  </outline>
</glyph>
<glyph name="cent" format="1">
  <advance width="485"/>
  <unicode hex="00A2"/>
  <outline>
    <contour>
      <point x="247" y="85" type="curve"/>
      <point x="230" y="-11" type="line"/>
      <point x="209" y="-11" type="line"/>
      <point x="227" y="87" type="line"/>
      <point x="132" y="99"/>
      <point x="67" y="168"/>
      <point x="67" y="299" type="curve" smooth="yes"/>
      <point x="67" y="504"/>
      <point x="190" y="631"/>
      <point x="319" y="631" type="curve" smooth="yes"/>
      <point x="320" y="631"/>
      <point x="321" y="631"/>
      <point x="322" y="631" type="curve"/>
      <point x="337" y="713" type="line"/>
      <point x="358" y="713" type="line"/>
      <point x="343" y="630" type="line"/>
      <point x="410" y="623"/>
      <point x="451" y="590"/>
      <point x="475" y="565" type="curve"/>
      <point x="461" y="551" type="line"/>
      <point x="437" y="577"/>
      <point x="393" y="611"/>
      <point x="319" y="611" type="curve" smooth="yes"/>
      <point x="203" y="611"/>
      <point x="89" y="490"/>
      <point x="89" y="299" type="curve" smooth="yes"/>
      <point x="89" y="167"/>
      <point x="158" y="105"/>
      <point x="260" y="105" type="curve" smooth="yes"/>
      <point x="312" y="105"/>
      <point x="359" y="122"/>
      <point x="394" y="149" type="curve"/>
      <point x="406" y="133" type="line"/>
      <point x="365" y="101"/>
      <point x="314" y="85"/>
      <point x="257" y="85" type="curve" smooth="yes"/>
      <point x="254" y="85"/>
      <point x="251" y="85"/>
    </contour>
  </outline>
</glyph>
<glyph name="sterling" format="1">
  <advance width="557"/>
  <unicode hex="00A3"/>
  <outline>
    <contour>
      <point x="182" y="316" type="curve"/>
      <point x="81" y="316" type="line"/>
      <point x="84" y="336" type="line"/>
      <point x="180" y="336" type="line"/>
      <point x="173" y="398"/>
      <point x="149" y="464"/>
      <point x="149" y="530" type="curve" smooth="yes"/>
      <point x="149" y="635"/>
      <point x="229" y="713"/>
      <point x="358" y="713" type="curve" smooth="yes"/>
      <point x="437" y="713"/>
      <point x="509" y="684"/>
      <point x="552" y="635" type="curve"/>
      <point x="538" y="621" type="line"/>
      <point x="495" y="667"/>
      <point x="430" y="693"/>
      <point x="357" y="693" type="curve" smooth="yes"/>
      <point x="242" y="693"/>
      <point x="171" y="623"/>
      <point x="171" y="530" type="curve" smooth="yes"/>
      <point x="171" y="466"/>
      <point x="196" y="403"/>
      <point x="202" y="336" type="curve"/>
      <point x="373" y="336" type="line"/>
      <point x="371" y="316" type="line"/>
      <point x="204" y="316" type="line"/>
      <point x="204" y="313"/>
      <point x="204" y="309"/>
      <point x="204" y="306" type="curve" smooth="yes"/>
      <point x="204" y="182"/>
      <point x="130" y="87"/>
      <point x="53" y="20" type="curve"/>
      <point x="457" y="20" type="line"/>
      <point x="454" y="0" type="line"/>
      <point x="22" y="0" type="line"/>
      <point x="26" y="22" type="line"/>
      <point x="120" y="104"/>
      <point x="182" y="194"/>
      <point x="182" y="306" type="curve" smooth="yes"/>
      <point x="182" y="309"/>
      <point x="182" y="313"/>
    </contour>
  </outline>
</glyph>
<glyph name="yen" format="1">
  <advance width="605"/>
  <unicode hex="00A5"/>
  <outline>
    <contour>
      <point x="295" y="177" type="line"/>
      <point x="437" y="177" type="line"/>
      <point x="433" y="157" type="line"/>
      <point x="291" y="157" type="line"/>
      <point x="264" y="0" type="line"/>
      <point x="242" y="0" type="line"/>
      <point x="269" y="157" type="line"/>
      <point x="128" y="157" type="line"/>
      <point x="131" y="177" type="line"/>
      <point x="273" y="177" type="line"/>
      <point x="293" y="294" type="line"/>
      <point x="130" y="700" type="line"/>
      <point x="154" y="700" type="line"/>
      <point x="308" y="317" type="line"/>
      <point x="597" y="700" type="line"/>
      <point x="623" y="700" type="line"/>
      <point x="315" y="294" type="line"/>
    </contour>
  </outline>
</glyph>
<glyph name="section" format="1">
  <advance width="591"/>
  <unicode hex="00A7"/>
  <outline>
    <contour>
      <point x="252" y="461" type="curve"/>
      <point x="199" y="491"/>
      <point x="177" y="523"/>
      <point x="177" y="573" type="curve" smooth="yes"/>
      <point x="177" y="647"/>
      <point x="237" y="708"/>
      <point x="348" y="708" type="curve" smooth="yes"/>
      <point x="437" y="708"/>
      <point x="499" y="671"/>
      <point x="535" y="639" type="curve"/>
      <point x="521" y="623" type="line"/>
      <point x="487" y="653"/>
      <point x="430" y="688"/>
      <point x="348" y="688" type="curve" smooth="yes"/>
      <point x="253" y="688"/>
      <point x="199" y="637"/>
      <point x="199" y="573" type="curve" smooth="yes"/>
      <point x="199" y="509"/>
      <point x="247" y="480"/>
      <point x="353" y="439" type="curve" smooth="yes"/>
      <point x="487" y="387"/>
      <point x="528" y="349"/>
      <point x="528" y="273" type="curve" smooth="yes"/>
      <point x="528" y="184"/>
      <point x="449" y="108"/>
      <point x="333" y="83" type="curve"/>
      <point x="386" y="53"/>
      <point x="408" y="21"/>
      <point x="408" y="-29" type="curve" smooth="yes"/>
      <point x="408" y="-103"/>
      <point x="348" y="-164"/>
      <point x="237" y="-164" type="curve" smooth="yes"/>
      <point x="148" y="-164"/>
      <point x="86" y="-127"/>
      <point x="50" y="-95" type="curve"/>
      <point x="64" y="-79" type="line"/>
      <point x="98" y="-109"/>
      <point x="155" y="-144"/>
      <point x="237" y="-144" type="curve" smooth="yes"/>
      <point x="332" y="-144"/>
      <point x="386" y="-93"/>
      <point x="386" y="-29" type="curve" smooth="yes"/>
      <point x="386" y="35"/>
      <point x="339" y="64"/>
      <point x="232" y="105" type="curve" smooth="yes"/>
      <point x="98" y="156"/>
      <point x="57" y="195"/>
      <point x="57" y="271" type="curve" smooth="yes"/>
      <point x="57" y="360"/>
      <point x="136" y="436"/>
    </contour>
    <contour>
      <point x="240" y="125" type="curve" smooth="yes"/>
      <point x="265" y="115"/>
      <point x="287" y="106"/>
      <point x="306" y="97" type="curve"/>
      <point x="423" y="115"/>
      <point x="506" y="188"/>
      <point x="506" y="273" type="curve" smooth="yes"/>
      <point x="506" y="341"/>
      <point x="465" y="372"/>
      <point x="345" y="419" type="curve" smooth="yes"/>
      <point x="320" y="429"/>
      <point x="298" y="438"/>
      <point x="279" y="447" type="curve"/>
      <point x="162" y="429"/>
      <point x="79" y="356"/>
      <point x="79" y="271" type="curve" smooth="yes"/>
      <point x="79" y="203"/>
      <point x="120" y="172"/>
    </contour>
  </outline>
</glyph>
<glyph name="dieresis" format="1">
  <advance width="500"/>
  <unicode hex="00A8"/>
  <outline>
    <contour>
      <point x="410" y="634" type="curve" smooth="yes"/>
      <point x="398" y="634"/>
      <point x="388" y="644"/>
      <point x="388" y="656" type="curve" smooth="yes"/>
      <point x="388" y="668"/>
      <point x="398" y="678"/>
      <point x="410" y="678" type="curve" smooth="yes"/>
      <point x="422" y="678"/>
      <point x="432" y="668"/>
      <point x="432" y="656" type="curve" smooth="yes"/>
      <point x="432" y="644"/>
      <point x="422" y="634"/>
    </contour>
    <contour>
      <point x="217" y="634" type="curve" smooth="yes"/>
      <point x="204" y="634"/>
      <point x="194" y="644"/>
      <point x="194" y="656" type="curve" smooth="yes"/>
      <point x="194" y="668"/>
      <point x="204" y="678"/>
      <point x="217" y="678" type="curve" smooth="yes"/>
      <point x="228" y="678"/>
      <point x="238" y="668"/>
      <point x="238" y="656" type="curve" smooth="yes"/>
      <point x="238" y="644"/>
      <point x="228" y="634"/>
    </contour>
  </outline>
</glyph>
<glyph name="copyright" format="1">
  <advance width="836"/>
  <unicode hex="00A9"/>
  <outline>
    <contour>
      <point x="796" y="350" type="curve" smooth="yes"/>
      <point x="796" y="139"/>
      <point x="643" y="-11"/>
      <point x="435" y="-11" type="curve" smooth="yes"/>
      <point x="227" y="-11"/>
      <point x="74" y="139"/>
      <point x="74" y="350" type="curve" smooth="yes"/>
      <point x="74" y="561"/>
      <point x="227" y="711"/>
      <point x="435" y="711" type="curve" smooth="yes"/>
      <point x="643" y="711"/>
      <point x="796" y="561"/>
    </contour>
    <contour>
      <point x="777" y="350" type="curve" smooth="yes"/>
      <point x="777" y="550"/>
      <point x="632" y="693"/>
      <point x="435" y="693" type="curve" smooth="yes"/>
      <point x="238" y="693"/>
      <point x="93" y="550"/>
      <point x="93" y="350" type="curve" smooth="yes"/>
      <point x="93" y="150"/>
      <point x="238" y="7"/>
      <point x="435" y="7" type="curve" smooth="yes"/>
      <point x="632" y="7"/>
      <point x="777" y="150"/>
    </contour>
    <contour>
      <point x="553" y="187" type="line"/>
      <point x="523" y="154"/>
      <point x="482" y="136"/>
      <point x="435" y="136" type="curve" smooth="yes"/>
      <point x="336" y="136"/>
      <point x="267" y="218"/>
      <point x="267" y="351" type="curve" smooth="yes"/>
      <point x="267" y="480"/>
      <point x="337" y="565"/>
      <point x="435" y="565" type="curve" smooth="yes"/>
      <point x="486" y="565"/>
      <point x="521" y="548"/>
      <point x="548" y="519" type="curve"/>
      <point x="532" y="505" type="line"/>
      <point x="507" y="532"/>
      <point x="480" y="545"/>
      <point x="435" y="545" type="curve" smooth="yes"/>
      <point x="350" y="545"/>
      <point x="288" y="469"/>
      <point x="288" y="351" type="curve" smooth="yes"/>
      <point x="288" y="233"/>
      <point x="350" y="155"/>
      <point x="435" y="155" type="curve" smooth="yes"/>
      <point x="475" y="155"/>
      <point x="510" y="171"/>
      <point x="538" y="202" type="curve"/>
    </contour>
  </outline>
</glyph>
<glyph name="ordfeminine" format="1">
  <advance width="454"/>
  <unicode hex="00AA"/>
  <outline>
    <contour>
      <point x="422" y="564" type="curve" smooth="yes"/>
      <point x="373" y="282" type="line"/>
      <point x="354" y="282" type="line"/>
      <point x="366" y="350" type="line"/>
      <point x="329" y="310"/>
      <point x="270" y="273"/>
      <point x="207" y="273" type="curve" smooth="yes"/>
      <point x="138" y="273"/>
      <point x="82" y="309"/>
      <point x="82" y="390" type="curve" smooth="yes"/>
      <point x="82" y="480"/>
      <point x="148" y="537"/>
      <point x="252" y="537" type="curve" smooth="yes"/>
      <point x="309" y="537"/>
      <point x="360" y="515"/>
      <point x="391" y="495" type="curve"/>
      <point x="403" y="563" type="line" smooth="yes"/>
      <point x="420" y="659"/>
      <point x="385" y="695"/>
      <point x="294" y="695" type="curve" smooth="yes"/>
      <point x="245" y="695"/>
      <point x="196" y="677"/>
      <point x="176" y="668" type="curve"/>
      <point x="169" y="684" type="line"/>
      <point x="192" y="694"/>
      <point x="242" y="712"/>
      <point x="295" y="712" type="curve" smooth="yes"/>
      <point x="399" y="712"/>
      <point x="440" y="669"/>
    </contour>
    <contour>
      <point x="388" y="478" type="line"/>
      <point x="356" y="499"/>
      <point x="308" y="521"/>
      <point x="249" y="521" type="curve" smooth="yes"/>
      <point x="159" y="521"/>
      <point x="101" y="469"/>
      <point x="101" y="391" type="curve" smooth="yes"/>
      <point x="101" y="322"/>
      <point x="148" y="289"/>
      <point x="210" y="289" type="curve" smooth="yes"/>
      <point x="273" y="289"/>
      <point x="333" y="332"/>
      <point x="370" y="375" type="curve"/>
    </contour>
  </outline>
</glyph>
<glyph name="guillemotleft" format="1">
  <advance width="541"/>
  <unicode hex="00AB"/>
  <outline>
    <contour>
      <point x="523" y="525" type="line"/>
      <point x="274" y="261" type="line"/>
      <point x="430" y="0" type="line"/>
      <point x="407" y="0" type="line"/>
      <point x="251" y="261" type="line"/>
      <point x="252" y="264" type="line"/>
      <point x="499" y="525" type="line"/>
    </contour>
    <contour>
      <point x="310" y="525" type="line"/>
      <point x="61" y="261" type="line"/>
      <point x="217" y="0" type="line"/>
      <point x="194" y="0" type="line"/>
      <point x="38" y="261" type="line"/>
      <point x="39" y="265" type="line"/>
      <point x="286" y="525" type="line"/>
    </contour>
  </outline>
</glyph>
<glyph name="degree" format="1">
  <advance width="446"/>
  <unicode hex="00B0"/>
  <outline>
    <contour>
      <point x="431" y="549" type="curve" smooth="yes"/>
      <point x="431" y="455"/>
      <point x="364" y="385"/>
      <point x="272" y="385" type="curve" smooth="yes"/>
      <point x="180" y="385"/>
      <point x="113" y="455"/>
      <point x="113" y="549" type="curve" smooth="yes"/>
      <point x="113" y="640"/>
      <point x="180" y="711"/>
      <point x="272" y="711" type="curve" smooth="yes"/>
      <point x="364" y="711"/>
      <point x="431" y="640"/>
    </contour>
    <contour>
      <point x="412" y="549" type="curve" smooth="yes"/>
      <point x="412" y="630"/>
      <point x="354" y="693"/>
      <point x="272" y="693" type="curve" smooth="yes"/>
      <point x="190" y="693"/>
      <point x="132" y="630"/>
      <point x="132" y="549" type="curve" smooth="yes"/>
      <point x="132" y="465"/>
      <point x="190" y="403"/>
      <point x="272" y="403" type="curve" smooth="yes"/>
      <point x="354" y="403"/>
      <point x="412" y="465"/>
    </contour>
  </outline>
</glyph>
<glyph name="acute" format="1">
  <advance width="500"/>
  <unicode hex="00B4"/>
  <outline>
    <contour>
      <point x="413" y="732" type="line"/>
      <point x="274" y="595" type="line"/>
      <point x="254" y="596" type="line"/>
      <point x="381" y="733" type="line"/>
    </contour>
  </outline>
</glyph>
<glyph name="paragraph" format="1">
  <advance width="630"/>
  <unicode hex="00B6"/>
  <outline>
    <contour>
      <point x="447" y="-185" type="line"/>
      <point x="425" y="-185" type="line"/>
      <point x="578" y="680" type="line"/>
      <point x="451" y="680" type="line"/>
      <point x="298" y="-185" type="line"/>
      <point x="276" y="-185" type="line"/>
      <point x="355" y="262" type="line"/>
      <point x="311" y="262" type="line" smooth="yes"/>
      <point x="164" y="262"/>
      <point x="83" y="340"/>
      <point x="83" y="454" type="curve" smooth="yes"/>
      <point x="83" y="620"/>
      <point x="195" y="700"/>
      <point x="350" y="700" type="curve" smooth="yes"/>
      <point x="604" y="700" type="line"/>
    </contour>
    <contour>
      <point x="359" y="282" type="line"/>
      <point x="429" y="680" type="line"/>
      <point x="346" y="680" type="line" smooth="yes"/>
      <point x="215" y="680"/>
      <point x="105" y="614"/>
      <point x="105" y="452" type="curve" smooth="yes"/>
      <point x="105" y="351"/>
      <point x="181" y="282"/>
      <point x="315" y="282" type="curve" smooth="yes"/>
    </contour>
  </outline>
</glyph>
<glyph name="periodcentered" format="1">
  <advance width="190"/>
  <unicode hex="00B7"/>
  <outline>
    <contour>
      <point x="139" y="382" type="curve" smooth="yes"/>
      <point x="139" y="369"/>
      <point x="128" y="359"/>
      <point x="116" y="359" type="curve" smooth="yes"/>
      <point x="103" y="359"/>
      <point x="93" y="369"/>
      <point x="93" y="382" type="curve" smooth="yes"/>
      <point x="93" y="395"/>
      <point x="103" y="406"/>
      <point x="116" y="406" type="curve" smooth="yes"/>
      <point x="128" y="406"/>
      <point x="139" y="395"/>
    </contour>
  </outline>
</glyph>
<glyph name="cedilla" format="1">
  <advance width="500"/>
  <unicode hex="00B8"/>
  <outline>
    <contour>
      <point x="289" y="-93" type="curve" smooth="yes"/>
      <point x="289" y="-143"/>
      <point x="245" y="-167"/>
      <point x="194" y="-167" type="curve" smooth="yes"/>
      <point x="152" y="-167"/>
      <point x="117" y="-155"/>
      <point x="87" y="-128" type="curve"/>
      <point x="98" y="-116" type="line"/>
      <point x="124" y="-141"/>
      <point x="162" y="-151"/>
      <point x="194" y="-151" type="curve" smooth="yes"/>
      <point x="237" y="-151"/>
      <point x="271" y="-129"/>
      <point x="271" y="-93" type="curve" smooth="yes"/>
      <point x="271" y="-67"/>
      <point x="251" y="-55"/>
      <point x="228" y="-55" type="curve" smooth="yes"/>
      <point x="208" y="-55"/>
      <point x="186" y="-63"/>
      <point x="171" y="-77" type="curve"/>
      <point x="157" y="-71" type="line"/>
      <point x="200" y="0" type="line"/>
      <point x="219" y="0" type="line"/>
      <point x="186" y="-52" type="line"/>
      <point x="198" y="-44"/>
      <point x="214" y="-40"/>
      <point x="230" y="-40" type="curve" smooth="yes"/>
      <point x="261" y="-40"/>
      <point x="289" y="-55"/>
    </contour>
  </outline>
</glyph>
<glyph name="ordmasculine" format="1">
  <advance width="479"/>
  <unicode hex="00BA"/>
  <outline>
    <contour>
      <point x="89" y="452" type="curve" smooth="yes"/>
      <point x="89" y="599"/>
      <point x="178" y="711"/>
      <point x="296" y="711" type="curve" smooth="yes"/>
      <point x="391" y="711"/>
      <point x="458" y="647"/>
      <point x="458" y="536" type="curve" smooth="yes"/>
      <point x="458" y="388"/>
      <point x="366" y="274"/>
      <point x="249" y="274" type="curve" smooth="yes"/>
      <point x="154" y="274"/>
      <point x="89" y="341"/>
    </contour>
    <contour>
      <point x="439" y="536" type="curve" smooth="yes"/>
      <point x="439" y="635"/>
      <point x="381" y="694"/>
      <point x="296" y="694" type="curve" smooth="yes"/>
      <point x="188" y="694"/>
      <point x="108" y="587"/>
      <point x="108" y="452" type="curve" smooth="yes"/>
      <point x="108" y="353"/>
      <point x="164" y="291"/>
      <point x="249" y="291" type="curve" smooth="yes"/>
      <point x="356" y="291"/>
      <point x="439" y="400"/>
    </contour>
  </outline>
</glyph>
<glyph name="guillemotright" format="1">
  <advance width="541"/>
  <unicode hex="00BB"/>
  <outline>
    <contour>
      <point x="497" y="261" type="line"/>
      <point x="249" y="0" type="line"/>
      <point x="225" y="0" type="line"/>
      <point x="473" y="263" type="line"/>
      <point x="317" y="525" type="line"/>
      <point x="341" y="525" type="line"/>
      <point x="496" y="265" type="line"/>
    </contour>
    <contour>
      <point x="284" y="261" type="line"/>
      <point x="36" y="0" type="line"/>
      <point x="12" y="0" type="line"/>
      <point x="260" y="263" type="line"/>
      <point x="104" y="525" type="line"/>
      <point x="128" y="525" type="line"/>
      <point x="283" y="264" type="line"/>
    </contour>
  </outline>
</glyph>
<glyph name="questiondown" format="1">
  <advance width="553"/>
  <unicode hex="00BF"/>
  <outline>
    <contour>
      <point x="350" y="680" type="curve" smooth="yes"/>
      <point x="350" y="693"/>
      <point x="361" y="703"/>
      <point x="373" y="703" type="curve" smooth="yes"/>
      <point x="386" y="703"/>
      <point x="396" y="693"/>
      <point x="396" y="680" type="curve" smooth="yes"/>
      <point x="396" y="667"/>
      <point x="386" y="656"/>
      <point x="373" y="656" type="curve" smooth="yes"/>
      <point x="361" y="656"/>
      <point x="350" y="667"/>
    </contour>
    <contour>
      <point x="58" y="134" type="curve" smooth="yes"/>
      <point x="58" y="233"/>
      <point x="127" y="284"/>
      <point x="213" y="340" type="curve" smooth="yes"/>
      <point x="299" y="396"/>
      <point x="317" y="415"/>
      <point x="340" y="551" type="curve"/>
      <point x="361" y="551" type="line"/>
      <point x="339" y="420"/>
      <point x="327" y="387"/>
      <point x="221" y="321" type="curve" smooth="yes"/>
      <point x="140" y="271"/>
      <point x="80" y="219"/>
      <point x="80" y="136" type="curve" smooth="yes"/>
      <point x="80" y="55"/>
      <point x="151" y="9"/>
      <point x="245" y="9" type="curve" smooth="yes"/>
      <point x="324" y="9"/>
      <point x="386" y="32"/>
      <point x="439" y="68" type="curve"/>
      <point x="450" y="51" type="line"/>
      <point x="396" y="14"/>
      <point x="327" y="-11"/>
      <point x="243" y="-11" type="curve" smooth="yes"/>
      <point x="137" y="-11"/>
      <point x="58" y="43"/>
    </contour>
  </outline>
</glyph>
<glyph name="Aring" format="1">
  <advance width="650"/>
  <unicode hex="00C5"/>
  <outline>
    <contour>
      <point x="412" y="684" type="curve"/>
      <point x="529" y="0" type="line"/>
      <point x="507" y="0" type="line"/>
      <point x="472" y="204" type="line"/>
      <point x="148" y="204" type="line"/>
      <point x="42" y="0" type="line"/>
      <point x="19" y="0" type="line"/>
      <point x="378" y="689" type="line"/>
      <point x="345" y="700"/>
      <point x="323" y="730"/>
      <point x="323" y="766" type="curve" smooth="yes"/>
      <point x="323" y="812"/>
      <point x="359" y="849"/>
      <point x="406" y="849" type="curve" smooth="yes"/>
      <point x="453" y="849"/>
      <point x="489" y="812"/>
      <point x="489" y="766" type="curve" smooth="yes"/>
      <point x="489" y="722"/>
      <point x="456" y="687"/>
    </contour>
    <contour>
      <point x="406" y="834" type="curve" smooth="yes"/>
      <point x="368" y="834"/>
      <point x="339" y="804"/>
      <point x="339" y="766" type="curve" smooth="yes"/>
      <point x="339" y="728"/>
      <point x="368" y="699"/>
      <point x="406" y="699" type="curve" smooth="yes"/>
      <point x="444" y="699"/>
      <point x="473" y="728"/>
      <point x="473" y="766" type="curve" smooth="yes"/>
      <point x="473" y="804"/>
      <point x="444" y="834"/>
    </contour>
    <contour>
      <point x="469" y="224" type="line"/>
      <point x="405" y="597" type="line" smooth="yes"/>
      <point x="403" y="608"/>
      <point x="394" y="670"/>
      <point x="393" y="677" type="curve"/>
      <point x="390" y="670"/>
      <point x="360" y="611"/>
      <point x="354" y="599" type="curve" smooth="yes"/>
      <point x="159" y="224" type="line"/>
    </contour>
  </outline>
</glyph>
<glyph name="AE" format="1">
  <advance width="935"/>
  <unicode hex="00C6"/>
  <outline>
    <contour>
      <point x="175" y="202" type="line"/>
      <point x="3" y="0" type="line"/>
      <point x="-23" y="0" type="line"/>
      <point x="574" y="700" type="line"/>
      <point x="951" y="700" type="line"/>
      <point x="948" y="680" type="line"/>
      <point x="599" y="680" type="line"/>
      <point x="547" y="383" type="line"/>
      <point x="766" y="383" type="line"/>
      <point x="762" y="363" type="line"/>
      <point x="543" y="363" type="line"/>
      <point x="482" y="20" type="line"/>
      <point x="847" y="20" type="line"/>
      <point x="843" y="0" type="line"/>
      <point x="457" y="0" type="line"/>
      <point x="493" y="202" type="line"/>
    </contour>
    <contour>
      <point x="497" y="223" type="line"/>
      <point x="577" y="674" type="line"/>
      <point x="193" y="223" type="line"/>
    </contour>
  </outline>
</glyph>
<glyph name="Ccedilla" format="1">
  <advance width="609"/>
  <unicode hex="00C7"/>
  <outline>
    <contour>
      <point x="276" y="-7" type="line"/>
      <point x="156" y="12"/>
      <point x="77" y="114"/>
      <point x="77" y="275" type="curve" smooth="yes"/>
      <point x="77" y="497"/>
      <point x="207" y="711"/>
      <point x="412" y="711" type="curve" smooth="yes"/>
      <point x="495" y="711"/>
      <point x="557" y="677"/>
      <point x="593" y="629" type="curve"/>
      <point x="575" y="616" type="line"/>
      <point x="543" y="659"/>
      <point x="486" y="691"/>
      <point x="410" y="691" type="curve" smooth="yes"/>
      <point x="223" y="691"/>
      <point x="99" y="487"/>
      <point x="99" y="276" type="curve" smooth="yes"/>
      <point x="99" y="106"/>
      <point x="191" y="9"/>
      <point x="323" y="9" type="curve" smooth="yes"/>
      <point x="383" y="9"/>
      <point x="439" y="30"/>
      <point x="492" y="74" type="curve"/>
      <point x="505" y="58" type="line"/>
      <point x="453" y="13"/>
      <point x="388" y="-11"/>
      <point x="321" y="-11" type="curve" smooth="yes"/>
      <point x="311" y="-11"/>
      <point x="302" y="-11"/>
      <point x="293" y="-10" type="curve"/>
      <point x="266" y="-52" type="line"/>
      <point x="278" y="-44"/>
      <point x="294" y="-40"/>
      <point x="310" y="-40" type="curve" smooth="yes"/>
      <point x="341" y="-40"/>
      <point x="369" y="-55"/>
      <point x="369" y="-93" type="curve" smooth="yes"/>
      <point x="369" y="-143"/>
      <point x="325" y="-167"/>
      <point x="274" y="-167" type="curve" smooth="yes"/>
      <point x="232" y="-167"/>
      <point x="197" y="-155"/>
      <point x="167" y="-128" type="curve"/>
      <point x="178" y="-116" type="line"/>
      <point x="204" y="-141"/>
      <point x="242" y="-151"/>
      <point x="274" y="-151" type="curve" smooth="yes"/>
      <point x="317" y="-151"/>
      <point x="351" y="-129"/>
      <point x="351" y="-93" type="curve" smooth="yes"/>
      <point x="351" y="-67"/>
      <point x="331" y="-55"/>
      <point x="308" y="-55" type="curve" smooth="yes"/>
      <point x="288" y="-55"/>
      <point x="266" y="-63"/>
      <point x="251" y="-77" type="curve"/>
      <point x="237" y="-71" type="line"/>
    </contour>
  </outline>
</glyph>
<glyph name="Eth" format="1">
  <advance width="664"/>
  <unicode hex="00D0"/>
  <outline>
    <contour>
      <point x="113" y="354" type="line"/>
      <point x="43" y="354" type="line"/>
      <point x="47" y="375" type="line"/>
      <point x="116" y="375" type="line"/>
      <point x="174" y="700" type="line"/>
      <point x="332" y="700" type="line" smooth="yes"/>
      <point x="499" y="700"/>
      <point x="600" y="613"/>
      <point x="600" y="428" type="curve" smooth="yes"/>
      <point x="600" y="164"/>
      <point x="451" y="0"/>
      <point x="222" y="0" type="curve" smooth="yes"/>
      <point x="50" y="0" type="line"/>
    </contour>
    <contour>
      <point x="139" y="375" type="line"/>
      <point x="297" y="375" type="line"/>
      <point x="293" y="354" type="line"/>
      <point x="135" y="354" type="line"/>
      <point x="76" y="20" type="line"/>
      <point x="225" y="20" type="line" smooth="yes"/>
      <point x="442" y="20"/>
      <point x="578" y="184"/>
      <point x="578" y="427" type="curve" smooth="yes"/>
      <point x="578" y="600"/>
      <point x="486" y="680"/>
      <point x="329" y="680" type="curve" smooth="yes"/>
      <point x="193" y="680" type="line"/>
    </contour>
  </outline>
</glyph>
<glyph name="Oslash" format="1">
  <advance width="718"/>
  <unicode hex="00D8"/>
  <outline>
    <contour>
      <point x="160" y="51" type="line"/>
      <point x="108" y="99"/>
      <point x="75" y="175"/>
      <point x="75" y="272" type="curve" smooth="yes"/>
      <point x="75" y="486"/>
      <point x="199" y="711"/>
      <point x="415" y="711" type="curve" smooth="yes"/>
      <point x="474" y="711"/>
      <point x="526" y="692"/>
      <point x="567" y="659" type="curve"/>
      <point x="587" y="690"/>
      <point x="627" y="750"/>
      <point x="627" y="750" type="curve"/>
      <point x="647" y="750" type="line"/>
      <point x="579" y="648" type="line"/>
      <point x="632" y="600"/>
      <point x="663" y="525"/>
      <point x="663" y="434" type="curve" smooth="yes"/>
      <point x="664" y="235"/>
      <point x="548" y="-11"/>
      <point x="328" y="-11" type="curve" smooth="yes"/>
      <point x="269" y="-11"/>
      <point x="215" y="7"/>
      <point x="173" y="40" type="curve"/>
      <point x="112" y="-50" type="line"/>
      <point x="93" y="-50" type="line"/>
    </contour>
    <contour>
      <point x="172" y="69" type="curve"/>
      <point x="555" y="641" type="line"/>
      <point x="517" y="673"/>
      <point x="470" y="691"/>
      <point x="416" y="691" type="curve" smooth="yes"/>
      <point x="212" y="691"/>
      <point x="97" y="475"/>
      <point x="97" y="273" type="curve" smooth="yes"/>
      <point x="97" y="185"/>
      <point x="126" y="115"/>
    </contour>
    <contour>
      <point x="567" y="630" type="curve"/>
      <point x="184" y="58" type="line"/>
      <point x="223" y="26"/>
      <point x="272" y="9"/>
      <point x="327" y="9" type="curve" smooth="yes"/>
      <point x="532" y="9"/>
      <point x="642" y="244"/>
      <point x="641" y="433" type="curve" smooth="yes"/>
      <point x="641" y="515"/>
      <point x="613" y="584"/>
    </contour>
  </outline>
</glyph>
<glyph name="Thorn" format="1">
  <advance width="572"/>
  <unicode hex="00DE"/>
  <outline>
    <contour>
      <point x="543" y="410" type="curve" smooth="yes"/>
      <point x="543" y="267"/>
      <point x="458" y="167"/>
      <point x="260" y="167" type="curve" smooth="yes"/>
      <point x="102" y="167" type="line"/>
      <point x="73" y="0" type="line"/>
      <point x="51" y="0" type="line"/>
      <point x="174" y="700" type="line"/>
      <point x="196" y="700" type="line"/>
      <point x="172" y="563" type="line"/>
      <point x="334" y="563" type="line" smooth="yes"/>
      <point x="463" y="563"/>
      <point x="543" y="518"/>
    </contour>
    <contour>
      <point x="520" y="408" type="curve" smooth="yes"/>
      <point x="520" y="504"/>
      <point x="449" y="543"/>
      <point x="332" y="543" type="curve" smooth="yes"/>
      <point x="169" y="543" type="line"/>
      <point x="106" y="187" type="line"/>
      <point x="262" y="187" type="line" smooth="yes"/>
      <point x="445" y="187"/>
      <point x="520" y="281"/>
    </contour>
  </outline>
</glyph>
<glyph name="germandbls" format="1">
  <advance width="563"/>
  <unicode hex="00DF"/>
  <outline>
    <contour>
      <point x="501" y="580" type="curve" smooth="yes"/>
      <point x="501" y="485"/>
      <point x="437" y="411"/>
      <point x="335" y="402" type="curve"/>
      <point x="435" y="391"/>
      <point x="498" y="326"/>
      <point x="498" y="235" type="curve" smooth="yes"/>
      <point x="498" y="91"/>
      <point x="395" y="0"/>
      <point x="237" y="0" type="curve" smooth="yes"/>
      <point x="224" y="0"/>
      <point x="206" y="1"/>
      <point x="193" y="2" type="curve"/>
      <point x="196" y="22" type="line"/>
      <point x="209" y="21"/>
      <point x="229" y="20"/>
      <point x="241" y="20" type="curve" smooth="yes"/>
      <point x="384" y="20"/>
      <point x="476" y="106"/>
      <point x="476" y="234" type="curve" smooth="yes"/>
      <point x="476" y="331"/>
      <point x="404" y="392"/>
      <point x="277" y="392" type="curve" smooth="yes"/>
      <point x="262" y="392" type="line"/>
      <point x="265" y="411" type="line"/>
      <point x="282" y="411" type="line" smooth="yes"/>
      <point x="410" y="411"/>
      <point x="479" y="481"/>
      <point x="479" y="578" type="curve" smooth="yes"/>
      <point x="479" y="645"/>
      <point x="432" y="702"/>
      <point x="335" y="702" type="curve" smooth="yes"/>
      <point x="236" y="702"/>
      <point x="173" y="632"/>
      <point x="154" y="525" type="curve" smooth="yes"/>
      <point x="31" y="-171" type="line"/>
      <point x="6" y="-185" type="line"/>
      <point x="132" y="526" type="line" smooth="yes"/>
      <point x="152" y="636"/>
      <point x="217" y="721"/>
      <point x="336" y="721" type="curve" smooth="yes"/>
      <point x="444" y="721"/>
      <point x="501" y="657"/>
    </contour>
  </outline>
</glyph>
<glyph name="ae" format="1">
  <advance width="890"/>
  <unicode hex="00E6"/>
  <outline>
    <contour>
      <point x="417" y="126" type="curve"/>
      <point x="341" y="31"/>
      <point x="265" y="-11"/>
      <point x="181" y="-11" type="curve" smooth="yes"/>
      <point x="99" y="-11"/>
      <point x="26" y="31"/>
      <point x="26" y="135" type="curve" smooth="yes"/>
      <point x="26" y="247"/>
      <point x="106" y="317"/>
      <point x="236" y="317" type="curve" smooth="yes"/>
      <point x="309" y="317"/>
      <point x="377" y="287"/>
      <point x="411" y="265" type="curve"/>
      <point x="427" y="352" type="line" smooth="yes"/>
      <point x="430" y="371"/>
      <point x="433" y="389"/>
      <point x="433" y="406" type="curve" smooth="yes"/>
      <point x="433" y="473"/>
      <point x="397" y="516"/>
      <point x="288" y="516" type="curve" smooth="yes"/>
      <point x="233" y="516"/>
      <point x="166" y="495"/>
      <point x="142" y="483" type="curve"/>
      <point x="136" y="502" type="line"/>
      <point x="163" y="514"/>
      <point x="226" y="536"/>
      <point x="290" y="536" type="curve" smooth="yes"/>
      <point x="406" y="536"/>
      <point x="464" y="489"/>
      <point x="451" y="386" type="curve"/>
      <point x="490" y="480"/>
      <point x="573" y="536"/>
      <point x="653" y="536" type="curve" smooth="yes"/>
      <point x="776" y="536"/>
      <point x="827" y="437"/>
      <point x="827" y="324" type="curve" smooth="yes"/>
      <point x="827" y="302"/>
      <point x="825" y="279"/>
      <point x="822" y="257" type="curve"/>
      <point x="432" y="257" type="line"/>
      <point x="430" y="240"/>
      <point x="429" y="222"/>
      <point x="429" y="203" type="curve" smooth="yes"/>
      <point x="429" y="59"/>
      <point x="513" y="9"/>
      <point x="608" y="9" type="curve" smooth="yes"/>
      <point x="662" y="9"/>
      <point x="704" y="21"/>
      <point x="748" y="42" type="curve"/>
      <point x="756" y="24" type="line"/>
      <point x="710" y="2"/>
      <point x="664" y="-11"/>
      <point x="606" y="-11" type="curve" smooth="yes"/>
      <point x="521" y="-11"/>
      <point x="443" y="26"/>
    </contour>
    <contour>
      <point x="434" y="275" type="curve"/>
      <point x="803" y="275" type="line"/>
      <point x="805" y="291"/>
      <point x="806" y="307"/>
      <point x="806" y="323" type="curve" smooth="yes"/>
      <point x="806" y="424"/>
      <point x="765" y="516"/>
      <point x="653" y="516" type="curve" smooth="yes"/>
      <point x="558" y="516"/>
      <point x="458" y="429"/>
    </contour>
    <contour>
      <point x="410" y="244" type="curve"/>
      <point x="355" y="278"/>
      <point x="301" y="298"/>
      <point x="234" y="298" type="curve" smooth="yes"/>
      <point x="118" y="298"/>
      <point x="48" y="233"/>
      <point x="48" y="136" type="curve" smooth="yes"/>
      <point x="48" y="48"/>
      <point x="106" y="8"/>
      <point x="185" y="8" type="curve" smooth="yes"/>
      <point x="260" y="8"/>
      <point x="333" y="50"/>
      <point x="412" y="148" type="curve"/>
      <point x="409" y="165"/>
      <point x="408" y="182"/>
      <point x="408" y="201" type="curve" smooth="yes"/>
      <point x="408" y="216"/>
      <point x="409" y="230"/>
    </contour>
  </outline>
</glyph>
<glyph name="ccedilla" format="1">
  <advance width="485"/>
  <unicode hex="00E7"/>
  <outline>
    <contour>
      <point x="196" y="-7" type="line"/>
      <point x="108" y="10"/>
      <point x="50" y="79"/>
      <point x="50" y="203" type="curve" smooth="yes"/>
      <point x="50" y="408"/>
      <point x="173" y="535"/>
      <point x="302" y="535" type="curve" smooth="yes"/>
      <point x="384" y="535"/>
      <point x="432" y="497"/>
      <point x="458" y="469" type="curve"/>
      <point x="444" y="455" type="line"/>
      <point x="420" y="481"/>
      <point x="376" y="515"/>
      <point x="302" y="515" type="curve" smooth="yes"/>
      <point x="186" y="515"/>
      <point x="72" y="394"/>
      <point x="72" y="203" type="curve" smooth="yes"/>
      <point x="72" y="71"/>
      <point x="141" y="9"/>
      <point x="243" y="9" type="curve" smooth="yes"/>
      <point x="295" y="9"/>
      <point x="342" y="26"/>
      <point x="377" y="53" type="curve"/>
      <point x="389" y="37" type="line"/>
      <point x="348" y="5"/>
      <point x="297" y="-11"/>
      <point x="240" y="-11" type="curve" smooth="yes"/>
      <point x="231" y="-11"/>
      <point x="222" y="-11"/>
      <point x="213" y="-10" type="curve"/>
      <point x="186" y="-52" type="line"/>
      <point x="198" y="-44"/>
      <point x="214" y="-40"/>
      <point x="230" y="-40" type="curve" smooth="yes"/>
      <point x="261" y="-40"/>
      <point x="289" y="-55"/>
      <point x="289" y="-93" type="curve" smooth="yes"/>
      <point x="289" y="-143"/>
      <point x="245" y="-167"/>
      <point x="194" y="-167" type="curve" smooth="yes"/>
      <point x="152" y="-167"/>
      <point x="117" y="-155"/>
      <point x="87" y="-128" type="curve"/>
      <point x="98" y="-116" type="line"/>
      <point x="124" y="-141"/>
      <point x="162" y="-151"/>
      <point x="194" y="-151" type="curve" smooth="yes"/>
      <point x="237" y="-151"/>
      <point x="271" y="-129"/>
      <point x="271" y="-93" type="curve" smooth="yes"/>
      <point x="271" y="-67"/>
      <point x="251" y="-55"/>
      <point x="228" y="-55" type="curve" smooth="yes"/>
      <point x="208" y="-55"/>
      <point x="186" y="-63"/>
      <point x="171" y="-77" type="curve"/>
      <point x="157" y="-71" type="line"/>
    </contour>
  </outline>
</glyph>
<glyph name="eth" format="1">
  <advance width="570"/>
  <unicode hex="00F0"/>
  <outline>
    <contour>
      <point x="402" y="632" type="curve"/>
      <point x="402" y="633"/>
      <point x="353" y="587"/>
      <point x="353" y="587" type="curve"/>
      <point x="340" y="600" type="line"/>
      <point x="340" y="600"/>
      <point x="386" y="644"/>
      <point x="386" y="643" type="curve"/>
      <point x="352" y="667"/>
      <point x="310" y="684"/>
      <point x="259" y="694" type="curve"/>
      <point x="262" y="713" type="line"/>
      <point x="318" y="701"/>
      <point x="365" y="683"/>
      <point x="401" y="658" type="curve"/>
      <point x="443" y="697" type="line"/>
      <point x="456" y="684" type="line"/>
      <point x="456" y="684"/>
      <point x="417" y="647"/>
      <point x="416" y="647" type="curve"/>
      <point x="492" y="588"/>
      <point x="524" y="497"/>
      <point x="524" y="383" type="curve" smooth="yes"/>
      <point x="524" y="160"/>
      <point x="413" y="-11"/>
      <point x="252" y="-11" type="curve" smooth="yes"/>
      <point x="121" y="-11"/>
      <point x="47" y="71"/>
      <point x="47" y="195" type="curve" smooth="yes"/>
      <point x="47" y="358"/>
      <point x="152" y="483"/>
      <point x="294" y="483" type="curve" smooth="yes"/>
      <point x="419" y="483"/>
      <point x="482" y="407"/>
      <point x="501" y="327" type="curve"/>
      <point x="502" y="346"/>
      <point x="503" y="365"/>
      <point x="503" y="385" type="curve" smooth="yes"/>
      <point x="503" y="491"/>
      <point x="473" y="576"/>
    </contour>
    <contour>
      <point x="489" y="250" type="curve"/>
      <point x="494" y="365"/>
      <point x="431" y="464"/>
      <point x="293" y="464" type="curve" smooth="yes"/>
      <point x="161" y="464"/>
      <point x="69" y="346"/>
      <point x="69" y="196" type="curve" smooth="yes"/>
      <point x="69" y="81"/>
      <point x="134" y="8"/>
      <point x="254" y="8" type="curve" smooth="yes"/>
      <point x="354" y="8"/>
      <point x="452" y="94"/>
    </contour>
  </outline>
</glyph>
<glyph name="oslash" format="1">
  <advance width="564"/>
  <unicode hex="00F8"/>
  <outline>
    <contour>
      <point x="445" y="485" type="line"/>
      <point x="484" y="450"/>
      <point x="509" y="395"/>
      <point x="509" y="317" type="curve" smooth="yes"/>
      <point x="509" y="131"/>
      <point x="404" y="-10"/>
      <point x="250" y="-10" type="curve" smooth="yes"/>
      <point x="205" y="-10"/>
      <point x="162" y="2"/>
      <point x="127" y="28" type="curve"/>
      <point x="73" y="-50" type="line"/>
      <point x="54" y="-50" type="line"/>
      <point x="115" y="38" type="line"/>
      <point x="76" y="73"/>
      <point x="50" y="129"/>
      <point x="50" y="210" type="curve" smooth="yes"/>
      <point x="50" y="397"/>
      <point x="158" y="535"/>
      <point x="307" y="535" type="curve" smooth="yes"/>
      <point x="352" y="535"/>
      <point x="397" y="523"/>
      <point x="433" y="495" type="curve"/>
      <point x="489" y="575" type="line"/>
      <point x="508" y="575" type="line"/>
    </contour>
    <contour>
      <point x="128" y="56" type="curve"/>
      <point x="421" y="477" type="line"/>
      <point x="390" y="503"/>
      <point x="349" y="515"/>
      <point x="308" y="515" type="curve" smooth="yes"/>
      <point x="169" y="515"/>
      <point x="72" y="382"/>
      <point x="72" y="210" type="curve" smooth="yes"/>
      <point x="72" y="140"/>
      <point x="94" y="89"/>
    </contour>
    <contour>
      <point x="433" y="467" type="curve"/>
      <point x="140" y="46" type="line"/>
      <point x="170" y="22"/>
      <point x="208" y="10"/>
      <point x="249" y="10" type="curve" smooth="yes"/>
      <point x="393" y="10"/>
      <point x="487" y="145"/>
      <point x="487" y="317" type="curve" smooth="yes"/>
      <point x="487" y="386"/>
      <point x="466" y="435"/>
    </contour>
  </outline>
</glyph>
<glyph name="dotlessi" format="1">
  <advance width="208"/>
  <unicode hex="0131"/>
  <outline>
    <contour>
      <point x="157" y="525" type="line"/>
      <point x="65" y="0" type="line"/>
      <point x="43" y="0" type="line"/>
      <point x="136" y="525" type="line"/>
    </contour>
  </outline>
</glyph>
<glyph name="Lslash" format="1">
  <advance width="517"/>
  <unicode hex="0141"/>
  <outline>
    <contour>
      <point x="124" y="282" type="line"/>
      <point x="78" y="20" type="line"/>
      <point x="418" y="20" type="line"/>
      <point x="414" y="0" type="line"/>
      <point x="52" y="0" type="line"/>
      <point x="98" y="263" type="line"/>
      <point x="37" y="217" type="line"/>
      <point x="42" y="243" type="line"/>
      <point x="103" y="289" type="line"/>
      <point x="176" y="700" type="line"/>
      <point x="198" y="700" type="line"/>
      <point x="129" y="308" type="line"/>
      <point x="330" y="458" type="line"/>
      <point x="326" y="432" type="line"/>
    </contour>
  </outline>
</glyph>
<glyph name="lslash" format="1">
  <advance width="225"/>
  <unicode hex="0142"/>
  <outline>
    <contour>
      <point x="194" y="378" type="line"/>
      <point x="189" y="352" type="line"/>
      <point x="129" y="308" type="line"/>
      <point x="74" y="0" type="line"/>
      <point x="53" y="0" type="line"/>
      <point x="104" y="292" type="line"/>
      <point x="43" y="247" type="line"/>
      <point x="48" y="273" type="line"/>
      <point x="109" y="317" type="line"/>
      <point x="179" y="717" type="line"/>
      <point x="203" y="729" type="line"/>
      <point x="133" y="333" type="line"/>
    </contour>
  </outline>
</glyph>
<glyph name="OE" format="1">
  <advance width="1051"/>
  <unicode hex="0152"/>
  <outline>
    <contour>
      <point x="658" y="478" type="curve"/>
      <point x="697" y="700" type="line"/>
      <point x="1070" y="700" type="line"/>
      <point x="1066" y="680" type="line"/>
      <point x="716" y="680" type="line"/>
      <point x="663" y="383" type="line"/>
      <point x="882" y="383" type="line"/>
      <point x="878" y="363" type="line"/>
      <point x="659" y="363" type="line"/>
      <point x="599" y="20" type="line"/>
      <point x="966" y="20" type="line"/>
      <point x="962" y="0" type="line"/>
      <point x="573" y="0" type="line"/>
      <point x="608" y="196" type="line"/>
      <point x="558" y="77"/>
      <point x="457" y="-11"/>
      <point x="328" y="-11" type="curve" smooth="yes"/>
      <point x="184" y="-11"/>
      <point x="75" y="94"/>
      <point x="75" y="272" type="curve" smooth="yes"/>
      <point x="75" y="486"/>
      <point x="199" y="711"/>
      <point x="415" y="711" type="curve" smooth="yes"/>
      <point x="542" y="711"/>
      <point x="640" y="626"/>
    </contour>
    <contour>
      <point x="641" y="433" type="curve" smooth="yes"/>
      <point x="641" y="584"/>
      <point x="548" y="691"/>
      <point x="416" y="691" type="curve" smooth="yes"/>
      <point x="212" y="691"/>
      <point x="97" y="475"/>
      <point x="97" y="273" type="curve" smooth="yes"/>
      <point x="97" y="109"/>
      <point x="195" y="9"/>
      <point x="327" y="9" type="curve" smooth="yes"/>
      <point x="532" y="9"/>
      <point x="642" y="244"/>
    </contour>
  </outline>
</glyph>
<glyph name="oe" format="1">
  <advance width="963"/>
  <unicode hex="0153"/>
  <outline>
    <contour>
      <point x="484" y="173" type="curve"/>
      <point x="446" y="60"/>
      <point x="358" y="-10"/>
      <point x="250" y="-10" type="curve" smooth="yes"/>
      <point x="146" y="-10"/>
      <point x="50" y="55"/>
      <point x="50" y="210" type="curve" smooth="yes"/>
      <point x="50" y="397"/>
      <point x="158" y="535"/>
      <point x="307" y="535" type="curve" smooth="yes"/>
      <point x="400" y="535"/>
      <point x="498" y="478"/>
      <point x="506" y="348" type="curve"/>
      <point x="543" y="464"/>
      <point x="634" y="536"/>
      <point x="727" y="536" type="curve" smooth="yes"/>
      <point x="850" y="536"/>
      <point x="901" y="437"/>
      <point x="901" y="324" type="curve" smooth="yes"/>
      <point x="901" y="302"/>
      <point x="899" y="279"/>
      <point x="896" y="257" type="curve"/>
      <point x="506" y="257" type="line"/>
      <point x="504" y="240"/>
      <point x="503" y="222"/>
      <point x="503" y="203" type="curve" smooth="yes"/>
      <point x="503" y="59"/>
      <point x="587" y="9"/>
      <point x="682" y="9" type="curve" smooth="yes"/>
      <point x="736" y="9"/>
      <point x="778" y="21"/>
      <point x="822" y="42" type="curve"/>
      <point x="830" y="24" type="line"/>
      <point x="784" y="2"/>
      <point x="738" y="-11"/>
      <point x="680" y="-11" type="curve" smooth="yes"/>
      <point x="584" y="-11"/>
      <point x="491" y="37"/>
    </contour>
    <contour>
      <point x="508" y="275" type="curve"/>
      <point x="877" y="275" type="line"/>
      <point x="879" y="291"/>
      <point x="880" y="307"/>
      <point x="880" y="323" type="curve" smooth="yes"/>
      <point x="880" y="424"/>
      <point x="839" y="516"/>
      <point x="727" y="516" type="curve" smooth="yes"/>
      <point x="632" y="516"/>
      <point x="532" y="429"/>
    </contour>
    <contour>
      <point x="72" y="210" type="curve" smooth="yes"/>
      <point x="72" y="72"/>
      <point x="156" y="10"/>
      <point x="249" y="10" type="curve" smooth="yes"/>
      <point x="393" y="10"/>
      <point x="487" y="145"/>
      <point x="487" y="317" type="curve" smooth="yes"/>
      <point x="487" y="456"/>
      <point x="400" y="515"/>
      <point x="308" y="515" type="curve" smooth="yes"/>
      <point x="169" y="515"/>
      <point x="72" y="382"/>
    </contour>
  </outline>
</glyph>
<glyph name="florin" format="1">
  <advance width="350"/>
  <unicode hex="0192"/>
  <outline>
    <contour>
      <point x="376" y="694" type="curve"/>
      <point x="372" y="674" type="line"/>
      <point x="358" y="681"/>
      <point x="333" y="691"/>
      <point x="302" y="691" type="curve" smooth="yes"/>
      <point x="256" y="691"/>
      <point x="222" y="674"/>
      <point x="209" y="596" type="curve" smooth="yes"/>
      <point x="197" y="525" type="line"/>
      <point x="329" y="525" type="line"/>
      <point x="326" y="507" type="line"/>
      <point x="194" y="507" type="line"/>
      <point x="73" y="-174" type="line"/>
      <point x="49" y="-186" type="line"/>
      <point x="172" y="507" type="line"/>
      <point x="91" y="507" type="line"/>
      <point x="94" y="525" type="line"/>
      <point x="175" y="525" type="line"/>
      <point x="188" y="598" type="line" smooth="yes"/>
      <point x="204" y="690"/>
      <point x="245" y="711"/>
      <point x="303" y="711" type="curve" smooth="yes"/>
      <point x="334" y="711"/>
      <point x="361" y="701"/>
    </contour>
  </outline>
</glyph>
<glyph name="circumflex" format="1">
  <advance width="500"/>
  <unicode hex="02C6"/>
  <outline>
    <contour>
      <point x="450" y="595" type="line"/>
      <point x="428" y="595" type="line"/>
      <point x="325" y="717" type="line"/>
      <point x="181" y="594" type="line"/>
      <point x="156" y="594" type="line"/>
      <point x="315" y="732" type="line"/>
      <point x="338" y="732" type="line"/>
    </contour>
  </outline>
</glyph>
<glyph name="caron" format="1">
  <advance width="500"/>
  <unicode hex="02C7"/>
  <outline>
    <contour>
      <point x="181" y="733" type="line"/>
      <point x="203" y="733" type="line"/>
      <point x="306" y="611" type="line"/>
      <point x="450" y="734" type="line"/>
      <point x="475" y="734" type="line"/>
      <point x="316" y="596" type="line"/>
      <point x="293" y="596" type="line"/>
    </contour>
  </outline>
</glyph>
<glyph name="breve" format="1">
  <advance width="500"/>
  <unicode hex="02D8"/>
  <outline>
    <contour>
      <point x="476" y="732" type="line"/>
      <point x="452" y="647"/>
      <point x="398" y="593"/>
      <point x="313" y="593" type="curve" smooth="yes"/>
      <point x="225" y="593"/>
      <point x="175" y="642"/>
      <point x="182" y="732" type="curve"/>
      <point x="199" y="732" type="line"/>
      <point x="194" y="651"/>
      <point x="237" y="610"/>
      <point x="315" y="610" type="curve" smooth="yes"/>
      <point x="384" y="610"/>
      <point x="435" y="656"/>
      <point x="458" y="732" type="curve"/>
    </contour>
  </outline>
</glyph>
<glyph name="dotaccent" format="1">
  <advance width="500"/>
  <unicode hex="02D9"/>
  <outline>
    <contour>
      <point x="314" y="641" type="curve" smooth="yes"/>
      <point x="302" y="641"/>
      <point x="292" y="651"/>
      <point x="292" y="663" type="curve" smooth="yes"/>
      <point x="292" y="675"/>
      <point x="302" y="685"/>
      <point x="314" y="685" type="curve" smooth="yes"/>
      <point x="326" y="685"/>
      <point x="336" y="675"/>
      <point x="336" y="663" type="curve" smooth="yes"/>
      <point x="336" y="651"/>
      <point x="326" y="641"/>
    </contour>
  </outline>
</glyph>
<glyph name="ring" format="1">
  <advance width="500"/>
  <unicode hex="02DA"/>
  <outline>
    <contour>
      <point x="401" y="678" type="curve" smooth="yes"/>
      <point x="401" y="632"/>
      <point x="365" y="596"/>
      <point x="318" y="596" type="curve" smooth="yes"/>
      <point x="271" y="596"/>
      <point x="235" y="632"/>
      <point x="235" y="678" type="curve" smooth="yes"/>
      <point x="235" y="724"/>
      <point x="271" y="761"/>
      <point x="318" y="761" type="curve" smooth="yes"/>
      <point x="365" y="761"/>
      <point x="401" y="724"/>
    </contour>
    <contour>
      <point x="318" y="746" type="curve" smooth="yes"/>
      <point x="280" y="746"/>
      <point x="251" y="716"/>
      <point x="251" y="678" type="curve" smooth="yes"/>
      <point x="251" y="640"/>
      <point x="280" y="611"/>
      <point x="318" y="611" type="curve" smooth="yes"/>
      <point x="356" y="611"/>
      <point x="385" y="640"/>
      <point x="385" y="678" type="curve" smooth="yes"/>
      <point x="385" y="716"/>
      <point x="356" y="746"/>
    </contour>
  </outline>
</glyph>
<glyph name="ogonek" format="1">
  <advance width="500"/>
  <unicode hex="02DB"/>
  <outline>
    <contour>
      <point x="283" y="-173" type="line"/>
      <point x="249" y="-187"/>
      <point x="217" y="-194"/>
      <point x="182" y="-194" type="curve" smooth="yes"/>
      <point x="124" y="-194"/>
      <point x="85" y="-172"/>
      <point x="85" y="-123" type="curve" smooth="yes"/>
      <point x="85" y="-75"/>
      <point x="124" y="-31"/>
      <point x="182" y="2" type="curve"/>
      <point x="210" y="2" type="line"/>
      <point x="145" y="-32"/>
      <point x="104" y="-77"/>
      <point x="104" y="-121" type="curve" smooth="yes"/>
      <point x="104" y="-161"/>
      <point x="137" y="-177"/>
      <point x="182" y="-177" type="curve" smooth="yes"/>
      <point x="214" y="-177"/>
      <point x="244" y="-172"/>
      <point x="279" y="-157" type="curve"/>
    </contour>
  </outline>
</glyph>
<glyph name="tilde" format="1">
  <advance width="500"/>
  <unicode hex="02DC"/>
  <outline>
    <contour>
      <point x="476" y="678" type="line"/>
      <point x="462" y="624"/>
      <point x="434" y="596"/>
      <point x="388" y="596" type="curve" smooth="yes"/>
      <point x="355" y="596"/>
      <point x="331" y="614"/>
      <point x="310" y="631" type="curve" smooth="yes"/>
      <point x="287" y="649"/>
      <point x="266" y="666"/>
      <point x="237" y="666" type="curve" smooth="yes"/>
      <point x="205" y="666"/>
      <point x="181" y="644"/>
      <point x="169" y="602" type="curve"/>
      <point x="149" y="602" type="line"/>
      <point x="164" y="656"/>
      <point x="196" y="684"/>
      <point x="238" y="684" type="curve" smooth="yes"/>
      <point x="274" y="684"/>
      <point x="299" y="662"/>
      <point x="323" y="644" type="curve" smooth="yes"/>
      <point x="343" y="628"/>
      <point x="363" y="614"/>
      <point x="389" y="614" type="curve" smooth="yes"/>
      <point x="425" y="614"/>
      <point x="444" y="637"/>
      <point x="457" y="678" type="curve"/>
    </contour>
  </outline>
</glyph>
<glyph name="hungarumlaut" format="1">
  <advance width="500"/>
  <unicode hex="02DD"/>
  <outline>
    <contour>
      <point x="487" y="732" type="line"/>
      <point x="348" y="595" type="line"/>
      <point x="329" y="595" type="line"/>
      <point x="456" y="732" type="line"/>
    </contour>
    <contour>
      <point x="323" y="732" type="line"/>
      <point x="184" y="595" type="line"/>
      <point x="165" y="595" type="line"/>
      <point x="292" y="732" type="line"/>
    </contour>
  </outline>
</glyph>
<glyph name="endash" format="1">
  <advance width="413"/>
  <unicode hex="2013"/>
  <outline>
    <contour>
      <point x="377" y="374" type="line"/>
      <point x="373" y="353" type="line"/>
      <point x="64" y="353" type="line"/>
      <point x="68" y="374" type="line"/>
    </contour>
  </outline>
</glyph>
<glyph name="emdash" format="1">
  <advance width="565"/>
  <unicode hex="2014"/>
  <outline>
    <contour>
      <point x="529" y="374" type="line"/>
      <point x="525" y="353" type="line"/>
      <point x="64" y="353" type="line"/>
      <point x="67" y="374" type="line"/>
    </contour>
  </outline>
</glyph>
<glyph name="quoteleft" format="1">
  <advance width="193"/>
  <unicode hex="2018"/>
  <unicode hex="02BB"/>
  <outline>
    <contour>
      <point x="193" y="700" type="line"/>
      <point x="144" y="532" type="line"/>
      <point x="116" y="532" type="line"/>
      <point x="177" y="700" type="line"/>
    </contour>
  </outline>
</glyph>
<glyph name="quoteright" format="1">
  <advance width="193"/>
  <unicode hex="2019"/>
  <unicode hex="02BC"/>
  <outline>
    <contour>
      <point x="196" y="700" type="line"/>
      <point x="135" y="532" type="line"/>
      <point x="118" y="532" type="line"/>
      <point x="167" y="700" type="line"/>
    </contour>
  </outline>
</glyph>
<glyph name="quotesinglbase" format="1">
  <advance width="193"/>
  <unicode hex="201A"/>
  <outline>
    <contour>
      <point x="79" y="73" type="line"/>
      <point x="18" y="-94" type="line"/>
      <point x="1" y="-94" type="line"/>
      <point x="50" y="73" type="line"/>
    </contour>
  </outline>
</glyph>
<glyph name="quotedblleft" format="1">
  <advance width="359"/>
  <unicode hex="201C"/>
  <outline>
    <contour>
      <point x="358" y="700" type="line"/>
      <point x="309" y="532" type="line"/>
      <point x="280" y="532" type="line"/>
      <point x="341" y="700" type="line"/>
    </contour>
    <contour>
      <point x="192" y="700" type="line"/>
      <point x="143" y="532" type="line"/>
      <point x="115" y="532" type="line"/>
      <point x="176" y="700" type="line"/>
    </contour>
  </outline>
</glyph>
<glyph name="quotedblright" format="1">
  <advance width="359"/>
  <unicode hex="201D"/>
  <outline>
    <contour>
      <point x="362" y="700" type="line"/>
      <point x="301" y="532" type="line"/>
      <point x="285" y="532" type="line"/>
      <point x="334" y="700" type="line"/>
    </contour>
    <contour>
      <point x="197" y="700" type="line"/>
      <point x="136" y="532" type="line"/>
      <point x="119" y="532" type="line"/>
      <point x="168" y="700" type="line"/>
    </contour>
  </outline>
</glyph>
<glyph name="quotedblbase" format="1">
  <advance width="359"/>
  <unicode hex="201E"/>
  <outline>
    <contour>
      <point x="244" y="73" type="line"/>
      <point x="183" y="-94" type="line"/>
      <point x="167" y="-94" type="line"/>
      <point x="216" y="73" type="line"/>
    </contour>
    <contour>
      <point x="79" y="73" type="line"/>
      <point x="18" y="-94" type="line"/>
      <point x="1" y="-94" type="line"/>
      <point x="50" y="73" type="line"/>
    </contour>
  </outline>
</glyph>
<glyph name="dagger" format="1">
  <advance width="513"/>
  <unicode hex="2020"/>
  <outline>
    <contour>
      <point x="491" y="421" type="line"/>
      <point x="293" y="421" type="line"/>
      <point x="201" y="-100" type="line"/>
      <point x="179" y="-100" type="line"/>
      <point x="271" y="421" type="line"/>
      <point x="72" y="421" type="line"/>
      <point x="76" y="441" type="line"/>
      <point x="275" y="441" type="line"/>
      <point x="320" y="700" type="line"/>
      <point x="342" y="700" type="line"/>
      <point x="297" y="441" type="line"/>
      <point x="495" y="441" type="line"/>
    </contour>
  </outline>
</glyph>
<glyph name="daggerdbl" format="1">
  <advance width="513"/>
  <unicode hex="2021"/>
  <outline>
    <contour>
      <point x="445" y="159" type="line"/>
      <point x="247" y="159" type="line"/>
      <point x="201" y="-100" type="line"/>
      <point x="179" y="-100" type="line"/>
      <point x="225" y="159" type="line"/>
      <point x="26" y="159" type="line"/>
      <point x="29" y="178" type="line"/>
      <point x="228" y="178" type="line"/>
      <point x="272" y="422" type="line"/>
      <point x="73" y="422" type="line"/>
      <point x="76" y="441" type="line"/>
      <point x="275" y="441" type="line"/>
      <point x="321" y="700" type="line"/>
      <point x="343" y="700" type="line"/>
      <point x="297" y="441" type="line"/>
      <point x="495" y="441" type="line"/>
      <point x="492" y="422" type="line"/>
      <point x="294" y="422" type="line"/>
      <point x="250" y="178" type="line"/>
      <point x="448" y="178" type="line"/>
    </contour>
  </outline>
</glyph>
<glyph name="ellipsis" format="1">
  <advance width="570"/>
  <unicode hex="2026"/>
  <outline>
    <contour>
      <point x="455" y="20" type="curve" smooth="yes"/>
      <point x="455" y="7"/>
      <point x="444" y="-3"/>
      <point x="432" y="-3" type="curve" smooth="yes"/>
      <point x="419" y="-3"/>
      <point x="409" y="7"/>
      <point x="409" y="20" type="curve" smooth="yes"/>
      <point x="409" y="33"/>
      <point x="419" y="44"/>
      <point x="432" y="44" type="curve" smooth="yes"/>
      <point x="444" y="44"/>
      <point x="455" y="33"/>
    </contour>
    <contour>
      <point x="265" y="20" type="curve" smooth="yes"/>
      <point x="265" y="7"/>
      <point x="254" y="-3"/>
      <point x="242" y="-3" type="curve" smooth="yes"/>
      <point x="229" y="-3"/>
      <point x="219" y="7"/>
      <point x="219" y="20" type="curve" smooth="yes"/>
      <point x="219" y="33"/>
      <point x="229" y="44"/>
      <point x="242" y="44" type="curve" smooth="yes"/>
      <point x="254" y="44"/>
      <point x="265" y="33"/>
    </contour>
    <contour>
      <point x="75" y="20" type="curve" smooth="yes"/>
      <point x="75" y="7"/>
      <point x="64" y="-3"/>
      <point x="52" y="-3" type="curve" smooth="yes"/>
      <point x="39" y="-3"/>
      <point x="29" y="7"/>
      <point x="29" y="20" type="curve" smooth="yes"/>
      <point x="29" y="33"/>
      <point x="39" y="44"/>
      <point x="52" y="44" type="curve" smooth="yes"/>
      <point x="64" y="44"/>
      <point x="75" y="33"/>
    </contour>
  </outline>
</glyph>
<glyph name="perthousand" format="1">
  <advance width="1230"/>
  <unicode hex="2030"/>
  <outline>
    <contour>
      <point x="97" y="454" type="curve" smooth="yes"/>
      <point x="97" y="588"/>
      <point x="163" y="710"/>
      <point x="276" y="710" type="curve" smooth="yes"/>
      <point x="353" y="710"/>
      <point x="402" y="660"/>
      <point x="402" y="562" type="curve" smooth="yes"/>
      <point x="402" y="427"/>
      <point x="335" y="308"/>
      <point x="223" y="308" type="curve" smooth="yes"/>
      <point x="142" y="308"/>
      <point x="97" y="360"/>
    </contour>
    <contour>
      <point x="735" y="700" type="line"/>
      <point x="175" y="0" type="line"/>
      <point x="155" y="0" type="line"/>
      <point x="715" y="700" type="line"/>
    </contour>
    <contour>
      <point x="866" y="136" type="curve" smooth="yes"/>
      <point x="866" y="270"/>
      <point x="932" y="392"/>
      <point x="1045" y="392" type="curve" smooth="yes"/>
      <point x="1122" y="392"/>
      <point x="1171" y="342"/>
      <point x="1171" y="244" type="curve" smooth="yes"/>
      <point x="1171" y="109"/>
      <point x="1104" y="-10"/>
      <point x="992" y="-10" type="curve" smooth="yes"/>
      <point x="911" y="-10"/>
      <point x="866" y="42"/>
    </contour>
    <contour>
      <point x="488" y="136" type="curve" smooth="yes"/>
      <point x="488" y="270"/>
      <point x="554" y="392"/>
      <point x="667" y="392" type="curve" smooth="yes"/>
      <point x="744" y="392"/>
      <point x="793" y="342"/>
      <point x="793" y="244" type="curve" smooth="yes"/>
      <point x="793" y="109"/>
      <point x="726" y="-10"/>
      <point x="614" y="-10" type="curve" smooth="yes"/>
      <point x="533" y="-10"/>
      <point x="488" y="42"/>
    </contour>
    <contour>
      <point x="382" y="562" type="curve" smooth="yes"/>
      <point x="382" y="646"/>
      <point x="341" y="692"/>
      <point x="276" y="692" type="curve" smooth="yes"/>
      <point x="173" y="692"/>
      <point x="117" y="576"/>
      <point x="117" y="454" type="curve" smooth="yes"/>
      <point x="117" y="374"/>
      <point x="154" y="326"/>
      <point x="223" y="326" type="curve" smooth="yes"/>
      <point x="325" y="326"/>
      <point x="382" y="439"/>
    </contour>
    <contour>
      <point x="1151" y="244" type="curve" smooth="yes"/>
      <point x="1151" y="328"/>
      <point x="1110" y="374"/>
      <point x="1045" y="374" type="curve" smooth="yes"/>
      <point x="942" y="374"/>
      <point x="886" y="258"/>
      <point x="886" y="136" type="curve" smooth="yes"/>
      <point x="886" y="56"/>
      <point x="923" y="8"/>
      <point x="992" y="8" type="curve" smooth="yes"/>
      <point x="1094" y="8"/>
      <point x="1151" y="121"/>
    </contour>
    <contour>
      <point x="773" y="244" type="curve" smooth="yes"/>
      <point x="773" y="328"/>
      <point x="732" y="374"/>
      <point x="667" y="374" type="curve" smooth="yes"/>
      <point x="564" y="374"/>
      <point x="508" y="258"/>
      <point x="508" y="136" type="curve" smooth="yes"/>
      <point x="508" y="56"/>
      <point x="545" y="8"/>
      <point x="614" y="8" type="curve" smooth="yes"/>
      <point x="716" y="8"/>
      <point x="773" y="121"/>
    </contour>
  </outline>
</glyph>
<glyph name="guilsinglleft" format="1">
  <advance width="328"/>
  <unicode hex="2039"/>
  <outline>
    <contour>
      <point x="310" y="525" type="line"/>
      <point x="61" y="261" type="line"/>
      <point x="217" y="0" type="line"/>
      <point x="194" y="0" type="line"/>
      <point x="38" y="261" type="line"/>
      <point x="39" y="265" type="line"/>
      <point x="286" y="525" type="line"/>
    </contour>
  </outline>
</glyph>
<glyph name="guilsinglright" format="1">
  <advance width="328"/>
  <unicode hex="203A"/>
  <outline>
    <contour>
      <point x="284" y="261" type="line"/>
      <point x="36" y="0" type="line"/>
      <point x="12" y="0" type="line"/>
      <point x="260" y="263" type="line"/>
      <point x="104" y="525" type="line"/>
      <point x="128" y="525" type="line"/>
      <point x="283" y="264" type="line"/>
    </contour>
  </outline>
</glyph>
<glyph name="fraction" format="1">
  <advance width="452"/>
  <unicode hex="2044"/>
  <outline>
    <contour>
      <point x="565" y="700" type="line"/>
      <point x="-65" y="0" type="line"/>
      <point x="-89" y="0" type="line"/>
      <point x="540" y="700" type="line"/>
    </contour>
  </outline>
</glyph>
<glyph name="Euro" format="1">
  <advance width="570"/>
  <unicode hex="20AC"/>
  <outline>
    <contour>
      <point x="113" y="405" type="line"/>
      <point x="105" y="371"/>
      <point x="101" y="336"/>
      <point x="99" y="300" type="curve"/>
      <point x="374" y="300" type="line"/>
      <point x="370" y="280" type="line"/>
      <point x="98" y="280" type="line"/>
      <point x="98" y="279"/>
      <point x="98" y="277"/>
      <point x="98" y="276" type="curve" smooth="yes"/>
      <point x="98" y="106"/>
      <point x="181" y="9"/>
      <point x="305" y="9" type="curve" smooth="yes"/>
      <point x="365" y="9"/>
      <point x="414" y="36"/>
      <point x="457" y="75" type="curve"/>
      <point x="469" y="60" type="line"/>
      <point x="424" y="17"/>
      <point x="370" y="-11"/>
      <point x="304" y="-11" type="curve" smooth="yes"/>
      <point x="168" y="-11"/>
      <point x="76" y="93"/>
      <point x="76" y="275" type="curve" smooth="yes"/>
      <point x="76" y="499"/>
      <point x="205" y="711"/>
      <point x="395" y="711" type="curve" smooth="yes"/>
      <point x="477" y="711"/>
      <point x="525" y="676"/>
      <point x="559" y="627" type="curve"/>
      <point x="540" y="615" type="line"/>
      <point x="509" y="659"/>
      <point x="466" y="691"/>
      <point x="392" y="691" type="curve" smooth="yes"/>
      <point x="261" y="691"/>
      <point x="159" y="573"/>
      <point x="118" y="425" type="curve"/>
      <point x="397" y="425" type="line"/>
      <point x="393" y="405" type="line"/>
    </contour>
  </outline>
</glyph>
<glyph name="uni2117" format="1">
  <advance width="836"/>
  <unicode hex="2117"/>
  <outline>
    <contour>
      <point x="796" y="350" type="curve" smooth="yes"/>
      <point x="796" y="139"/>
      <point x="643" y="-11"/>
      <point x="435" y="-11" type="curve" smooth="yes"/>
      <point x="227" y="-11"/>
      <point x="74" y="139"/>
      <point x="74" y="350" type="curve" smooth="yes"/>
      <point x="74" y="561"/>
      <point x="227" y="711"/>
      <point x="435" y="711" type="curve" smooth="yes"/>
      <point x="643" y="711"/>
      <point x="796" y="561"/>
    </contour>
    <contour>
      <point x="777" y="350" type="curve" smooth="yes"/>
      <point x="777" y="550"/>
      <point x="632" y="693"/>
      <point x="435" y="693" type="curve" smooth="yes"/>
      <point x="238" y="693"/>
      <point x="93" y="550"/>
      <point x="93" y="350" type="curve" smooth="yes"/>
      <point x="93" y="150"/>
      <point x="238" y="7"/>
      <point x="435" y="7" type="curve" smooth="yes"/>
      <point x="632" y="7"/>
      <point x="777" y="150"/>
    </contour>
    <contour>
      <point x="590" y="433" type="curve" smooth="yes"/>
      <point x="590" y="350"/>
      <point x="537" y="313"/>
      <point x="447" y="313" type="curve" smooth="yes"/>
      <point x="352" y="313" type="line"/>
      <point x="352" y="137" type="line"/>
      <point x="331" y="137" type="line"/>
      <point x="331" y="550" type="line"/>
      <point x="456" y="550" type="line" smooth="yes"/>
      <point x="536" y="550"/>
      <point x="590" y="518"/>
    </contour>
    <contour>
      <point x="569" y="434" type="curve" smooth="yes"/>
      <point x="569" y="505"/>
      <point x="527" y="532"/>
      <point x="455" y="532" type="curve" smooth="yes"/>
      <point x="352" y="532" type="line"/>
      <point x="352" y="332" type="line"/>
      <point x="447" y="332" type="line" smooth="yes"/>
      <point x="527" y="332"/>
      <point x="569" y="363"/>
    </contour>
  </outline>
</glyph>
<glyph name="trademark" format="1">
  <advance width="806"/>
  <unicode hex="2122"/>
  <outline>
    <contour>
      <point x="386" y="687" type="line"/>
      <point x="253" y="687" type="line"/>
      <point x="182" y="285" type="line"/>
      <point x="167" y="285" type="line"/>
      <point x="238" y="687" type="line"/>
      <point x="106" y="687" type="line"/>
      <point x="108" y="700" type="line"/>
      <point x="388" y="700" type="line"/>
    </contour>
    <contour>
      <point x="751" y="285" type="line"/>
      <point x="737" y="285" type="line"/>
      <point x="804" y="668" type="line"/>
      <point x="576" y="281" type="line"/>
      <point x="573" y="281" type="line"/>
      <point x="478" y="668" type="line"/>
      <point x="411" y="285" type="line"/>
      <point x="397" y="285" type="line"/>
      <point x="470" y="700" type="line"/>
      <point x="485" y="700" type="line"/>
      <point x="579" y="312" type="line"/>
      <point x="807" y="700" type="line"/>
      <point x="824" y="700" type="line"/>
    </contour>
  </outline>
</glyph>
<glyph name="arrowleft" format="1">
  <advance width="600"/>
  <unicode hex="2190"/>
  <outline>
    <contour>
      <point x="553" y="339" type="line"/>
      <point x="108" y="339" type="line"/>
      <point x="207" y="246" type="line"/>
      <point x="208" y="244"/>
      <point x="204" y="240"/>
      <point x="202" y="242" type="curve"/>
      <point x="62" y="349" type="line"/>
      <point x="202" y="456" type="line"/>
      <point x="204" y="457"/>
      <point x="208" y="453"/>
      <point x="207" y="451" type="curve"/>
      <point x="108" y="359" type="line"/>
      <point x="553" y="359" type="line"/>
    </contour>
  </outline>
</glyph>
<glyph name="arrowup" format="1">
  <advance width="366"/>
  <unicode hex="2191"/>
  <outline>
    <contour>
      <point x="299" y="575" type="line"/>
      <point x="301" y="573"/>
      <point x="296" y="569"/>
      <point x="294" y="570" type="curve"/>
      <point x="202" y="669" type="line"/>
      <point x="202" y="0" type="line"/>
      <point x="182" y="0" type="line"/>
      <point x="182" y="669" type="line"/>
      <point x="90" y="570" type="line"/>
      <point x="88" y="569"/>
      <point x="83" y="573"/>
      <point x="85" y="575" type="curve"/>
      <point x="192" y="715" type="line"/>
    </contour>
  </outline>
</glyph>
<glyph name="arrowright" format="1">
  <advance width="600"/>
  <unicode hex="2192"/>
  <outline>
    <contour>
      <point x="553" y="349" type="line"/>
      <point x="413" y="242" type="line"/>
      <point x="411" y="240"/>
      <point x="407" y="244"/>
      <point x="408" y="246" type="curve"/>
      <point x="507" y="339" type="line"/>
      <point x="62" y="339" type="line"/>
      <point x="62" y="359" type="line"/>
      <point x="507" y="359" type="line"/>
      <point x="408" y="451" type="line"/>
      <point x="407" y="453"/>
      <point x="411" y="457"/>
      <point x="413" y="456" type="curve"/>
    </contour>
  </outline>
</glyph>
<glyph name="arrowdown" format="1">
  <advance width="366"/>
  <unicode hex="2193"/>
  <outline>
    <contour>
      <point x="290" y="125" type="curve"/>
      <point x="183" y="-15" type="line"/>
      <point x="76" y="125" type="line"/>
      <point x="74" y="127"/>
      <point x="79" y="131"/>
      <point x="81" y="130" type="curve"/>
      <point x="173" y="31" type="line"/>
      <point x="173" y="700" type="line"/>
      <point x="193" y="700" type="line"/>
      <point x="193" y="31" type="line"/>
      <point x="285" y="130" type="line"/>
      <point x="287" y="131"/>
      <point x="292" y="127"/>
    </contour>
  </outline>
</glyph>
<glyph name="arrowboth" format="1">
  <advance width="725"/>
  <unicode hex="2194"/>
  <outline>
    <contour>
      <point x="712" y="349" type="line"/>
      <point x="573" y="242" type="line"/>
      <point x="571" y="240"/>
      <point x="567" y="244"/>
      <point x="568" y="246" type="curve"/>
      <point x="667" y="339" type="line"/>
      <point x="90" y="339" type="line"/>
      <point x="189" y="246" type="line"/>
      <point x="190" y="244"/>
      <point x="186" y="240"/>
      <point x="184" y="242" type="curve"/>
      <point x="44" y="349" type="line"/>
      <point x="184" y="456" type="line"/>
      <point x="186" y="457"/>
      <point x="190" y="453"/>
      <point x="189" y="451" type="curve"/>
      <point x="90" y="359" type="line"/>
      <point x="667" y="359" type="line"/>
      <point x="568" y="451" type="line"/>
      <point x="567" y="453"/>
      <point x="571" y="457"/>
      <point x="573" y="456" type="curve"/>
    </contour>
  </outline>
</glyph>
<glyph name="arrowupdn" format="1">
  <advance width="366"/>
  <unicode hex="2195"/>
  <outline>
    <contour>
      <point x="299" y="125" type="curve"/>
      <point x="192" y="-15" type="line"/>
      <point x="85" y="125" type="line"/>
      <point x="83" y="127"/>
      <point x="88" y="131"/>
      <point x="90" y="130" type="curve"/>
      <point x="182" y="31" type="line"/>
      <point x="182" y="669" type="line"/>
      <point x="90" y="570" type="line"/>
      <point x="88" y="569"/>
      <point x="83" y="573"/>
      <point x="85" y="575" type="curve"/>
      <point x="192" y="715" type="line"/>
      <point x="299" y="575" type="line"/>
      <point x="301" y="573"/>
      <point x="296" y="569"/>
      <point x="294" y="570" type="curve"/>
      <point x="202" y="669" type="line"/>
      <point x="202" y="31" type="line"/>
      <point x="294" y="130" type="line"/>
      <point x="296" y="131"/>
      <point x="301" y="127"/>
    </contour>
  </outline>
</glyph>
<glyph name="radical" format="1">
  <advance width="535"/>
  <unicode hex="221A"/>
  <outline>
    <contour>
      <point x="488" y="700" type="line"/>
      <point x="224" y="0" type="line"/>
      <point x="203" y="0" type="line"/>
      <point x="46" y="340" type="line"/>
      <point x="68" y="340" type="line"/>
      <point x="213" y="25" type="line"/>
      <point x="466" y="700" type="line"/>
    </contour>
  </outline>
</glyph>
<glyph name="apple" format="1">
  <advance width="714"/>
  <unicode hex="F8FF"/>
  <outline>
    <contour>
      <point x="702" y="349" type="line"/>
      <point x="565" y="241" type="line"/>
      <point x="563" y="239"/>
      <point x="560" y="243"/>
      <point x="561" y="245" type="curve"/>
      <point x="659" y="339" type="line"/>
      <point x="383" y="339" type="line"/>
      <point x="383" y="28" type="line"/>
      <point x="477" y="126" type="line"/>
      <point x="480" y="127"/>
      <point x="483" y="124"/>
      <point x="482" y="122" type="curve"/>
      <point x="374" y="-15" type="line"/>
      <point x="266" y="122" type="line"/>
      <point x="264" y="124"/>
      <point x="268" y="127"/>
      <point x="270" y="126" type="curve"/>
      <point x="364" y="28" type="line"/>
      <point x="364" y="339" type="line"/>
      <point x="87" y="339" type="line"/>
      <point x="186" y="245" type="line"/>
      <point x="187" y="243"/>
      <point x="184" y="239"/>
      <point x="182" y="241" type="curve"/>
      <point x="44" y="349" type="line"/>
      <point x="182" y="457" type="line"/>
      <point x="184" y="458"/>
      <point x="187" y="455"/>
      <point x="186" y="452" type="curve"/>
      <point x="87" y="359" type="line"/>
      <point x="364" y="359" type="line"/>
      <point x="364" y="672" type="line"/>
      <point x="270" y="574" type="line"/>
      <point x="268" y="573"/>
      <point x="264" y="576"/>
      <point x="266" y="578" type="curve"/>
      <point x="374" y="715" type="line"/>
      <point x="482" y="578" type="line"/>
      <point x="483" y="576"/>
      <point x="480" y="573"/>
      <point x="477" y="574" type="curve"/>
      <point x="383" y="672" type="line"/>
      <point x="383" y="359" type="line"/>
      <point x="659" y="359" type="line"/>
      <point x="561" y="452" type="line"/>
      <point x="560" y="455"/>
      <point x="563" y="458"/>
      <point x="565" y="457" type="curve"/>
    </contour>
  </outline>
</glyph>
<glyph name="fi" format="1">
  <advance width="534"/>
  <unicode hex="FB01"/>
  <outline>
    <contour>
      <point x="522" y="687" type="curve" smooth="yes"/>
      <point x="522" y="677"/>
      <point x="513" y="668"/>
      <point x="504" y="668" type="curve" smooth="yes"/>
      <point x="492" y="668"/>
      <point x="484" y="677"/>
      <point x="484" y="687" type="curve" smooth="yes"/>
      <point x="484" y="698"/>
      <point x="492" y="706"/>
      <point x="504" y="706" type="curve" smooth="yes"/>
      <point x="513" y="706"/>
      <point x="522" y="698"/>
    </contour>
    <contour>
      <point x="373" y="709" type="curve"/>
      <point x="369" y="691" type="line"/>
      <point x="354" y="697"/>
      <point x="328" y="705"/>
      <point x="303" y="705" type="curve" smooth="yes"/>
      <point x="255" y="705"/>
      <point x="223" y="686"/>
      <point x="210" y="610" type="curve" smooth="yes"/>
      <point x="195" y="525" type="line"/>
      <point x="327" y="525" type="line"/>
      <point x="324" y="507" type="line"/>
      <point x="192" y="507" type="line"/>
      <point x="102" y="0" type="line"/>
      <point x="80" y="0" type="line"/>
      <point x="170" y="507" type="line"/>
      <point x="88" y="507" type="line"/>
      <point x="92" y="525" type="line"/>
      <point x="173" y="525" type="line"/>
      <point x="188" y="611" type="line" smooth="yes"/>
      <point x="204" y="703"/>
      <point x="246" y="724"/>
      <point x="302" y="724" type="curve" smooth="yes"/>
      <point x="333" y="724"/>
      <point x="359" y="715"/>
    </contour>
    <contour>
      <point x="391" y="0" type="line"/>
      <point x="369" y="0" type="line"/>
      <point x="462" y="525" type="line"/>
      <point x="484" y="525" type="line"/>
    </contour>
  </outline>
</glyph>
<glyph name="fl" format="1">
  <advance width="534"/>
  <unicode hex="FB02"/>
  <outline>
    <contour>
      <point x="391" y="0" type="line"/>
      <point x="369" y="0" type="line"/>
      <point x="496" y="717" type="line"/>
      <point x="520" y="729" type="line"/>
    </contour>
    <contour>
      <point x="373" y="709" type="curve"/>
      <point x="369" y="691" type="line"/>
      <point x="354" y="697"/>
      <point x="328" y="705"/>
      <point x="303" y="705" type="curve" smooth="yes"/>
      <point x="255" y="705"/>
      <point x="223" y="686"/>
      <point x="210" y="610" type="curve" smooth="yes"/>
      <point x="195" y="525" type="line"/>
      <point x="327" y="525" type="line"/>
      <point x="324" y="507" type="line"/>
      <point x="192" y="507" type="line"/>
      <point x="102" y="0" type="line"/>
      <point x="80" y="0" type="line"/>
      <point x="170" y="507" type="line"/>
      <point x="88" y="507" type="line"/>
      <point x="92" y="525" type="line"/>
      <point x="173" y="525" type="line"/>
      <point x="188" y="611" type="line" smooth="yes"/>
      <point x="204" y="703"/>
      <point x="246" y="724"/>
      <point x="302" y="724" type="curve" smooth="yes"/>
      <point x="333" y="724"/>
      <point x="359" y="715"/>
    </contour>
  </outline>
</glyph>
<glyph name="a.salt" format="1">
  <advance width="545"/>
  <outline>
    <contour>
      <point x="406" y="0" type="line"/>
      <point x="384" y="0" type="line"/>
      <point x="399" y="86" type="line"/>
      <point x="365" y="44"/>
      <point x="291" y="-11"/>
      <point x="214" y="-11" type="curve" smooth="yes"/>
      <point x="112" y="-11"/>
      <point x="45" y="52"/>
      <point x="45" y="176" type="curve" smooth="yes"/>
      <point x="45" y="335"/>
      <point x="117" y="535"/>
      <point x="290" y="535" type="curve" smooth="yes"/>
      <point x="351" y="535"/>
      <point x="421" y="501"/>
      <point x="461" y="432" type="curve"/>
      <point x="477" y="525" type="line"/>
      <point x="499" y="525" type="line"/>
    </contour>
    <contour>
      <point x="405" y="118" type="curve"/>
      <point x="456" y="406" type="line"/>
      <point x="418" y="477"/>
      <point x="358" y="515"/>
      <point x="287" y="515" type="curve" smooth="yes"/>
      <point x="148" y="515"/>
      <point x="67" y="349"/>
      <point x="67" y="176" type="curve" smooth="yes"/>
      <point x="67" y="69"/>
      <point x="120" y="9"/>
      <point x="217" y="9" type="curve" smooth="yes"/>
      <point x="286" y="9"/>
      <point x="352" y="54"/>
    </contour>
  </outline>
</glyph>
<glyph name="bullet" format="1">
  <advance width="283"/>
  <outline>
    <contour>
      <point x="211" y="366" type="curve" smooth="yes"/>
      <point x="211" y="336"/>
      <point x="187" y="312"/>
      <point x="157" y="312" type="curve" smooth="yes"/>
      <point x="127" y="312"/>
      <point x="103" y="336"/>
      <point x="103" y="366" type="curve" smooth="yes"/>
      <point x="103" y="396"/>
      <point x="127" y="421"/>
      <point x="157" y="421" type="curve" smooth="yes"/>
      <point x="187" y="421"/>
      <point x="211" y="396"/>
    </contour>
  </outline>
</glyph>
<glyph name="macron" format="1">
  <advance width="500"/>
  <outline>
    <contour>
      <point x="451" y="655" type="line"/>
      <point x="448" y="635" type="line"/>
      <point x="176" y="635" type="line"/>
      <point x="179" y="655" type="line"/>
    </contour>
  </outline>
</glyph>
<glyph name="registered" format="1">
  <advance width="836"/>
  <outline>
    <contour>
      <point x="796" y="350" type="curve" smooth="yes"/>
      <point x="796" y="139"/>
      <point x="643" y="-11"/>
      <point x="435" y="-11" type="curve" smooth="yes"/>
      <point x="227" y="-11"/>
      <point x="74" y="139"/>
      <point x="74" y="350" type="curve" smooth="yes"/>
      <point x="74" y="561"/>
      <point x="227" y="711"/>
      <point x="435" y="711" type="curve" smooth="yes"/>
      <point x="643" y="711"/>
      <point x="796" y="561"/>
    </contour>
    <contour>
      <point x="777" y="350" type="curve" smooth="yes"/>
      <point x="777" y="550"/>
      <point x="632" y="693"/>
      <point x="435" y="693" type="curve" smooth="yes"/>
      <point x="238" y="693"/>
      <point x="93" y="550"/>
      <point x="93" y="350" type="curve" smooth="yes"/>
      <point x="93" y="150"/>
      <point x="238" y="7"/>
      <point x="435" y="7" type="curve" smooth="yes"/>
      <point x="632" y="7"/>
      <point x="777" y="150"/>
    </contour>
    <contour>
      <point x="579" y="452" type="curve" smooth="yes"/>
      <point x="579" y="380"/>
      <point x="542" y="348"/>
      <point x="479" y="337" type="curve"/>
      <point x="575" y="149" type="line"/>
      <point x="551" y="149" type="line"/>
      <point x="455" y="335" type="line"/>
      <point x="448" y="335"/>
      <point x="339" y="335"/>
      <point x="339" y="335" type="curve"/>
      <point x="339" y="149" type="line"/>
      <point x="318" y="149" type="line"/>
      <point x="318" y="562" type="line"/>
      <point x="443" y="562" type="line" smooth="yes"/>
      <point x="523" y="562"/>
      <point x="579" y="534"/>
    </contour>
    <contour>
      <point x="559" y="452" type="curve" smooth="yes"/>
      <point x="559" y="521"/>
      <point x="513" y="543"/>
      <point x="442" y="543" type="curve" smooth="yes"/>
      <point x="339" y="543" type="line"/>
      <point x="339" y="355" type="line"/>
      <point x="442" y="355" type="line" smooth="yes"/>
      <point x="522" y="355"/>
      <point x="559" y="383"/>
    </contour>
  </outline>
</glyph>
